<svg xmlns="http://www.w3.org/2000/svg" xmlns:xlink="http://www.w3.org/1999/xlink" contentStyleType="text/css" height="1508px" preserveAspectRatio="none" style="width:7393px;height:1508px;;" version="1.1" viewBox="0 0 7393 1508" width="7393px" zoomAndPan="magnify"><defs></defs><g><g class="entity" id="entity_f40ec978-42e6-414a-a044-b6df23dfafef"><rect fill="#F1F1F1" height="96.8906" rx="2.5" ry="2.5" style="stroke:#181818;stroke-width:0.5;" width="554.418" x="3612" y="1058"></rect><ellipse cx="3743.855" cy="1074" fill="#ADD1B2" rx="11" ry="11" style="stroke:#181818;stroke-width:1;"></ellipse><path d="M3746.8237,1079.6406 Q3746.2456,1079.9375 3745.605,1080.0781 Q3744.9644,1080.2344 3744.2612,1080.2344 Q3741.7612,1080.2344 3740.4331,1078.5938 Q3739.1206,1076.9375 3739.1206,1073.8125 Q3739.1206,1070.6875 3740.4331,1069.0313 Q3741.7612,1067.375 3744.2612,1067.375 Q3744.9644,1067.375 3745.605,1067.5313 Q3746.2612,1067.6875 3746.8237,1067.9844 L3746.8237,1070.7031 Q3746.1987,1070.125 3745.605,1069.8594 Q3745.0112,1069.5781 3744.3862,1069.5781 Q3743.0425,1069.5781 3742.355,1070.6563 Q3741.6675,1071.7188 3741.6675,1073.8125 Q3741.6675,1075.9063 3742.355,1076.9844 Q3743.0425,1078.0469 3744.3862,1078.0469 Q3745.0112,1078.0469 3745.605,1077.7813 Q3746.1987,1077.5 3746.8237,1076.9219 L3746.8237,1079.6406 Z " fill="#000000"></path><text fill="#000000" font-family="sans-serif" font-size="14" lengthAdjust="spacing" textLength="282.208" x="3764.355" y="1078.8467">f40ec978-42e6-414a-a044-b6df23dfafef</text><line style="stroke:#181818;stroke-width:0.5;" x1="3613" x2="4165.418" y1="1090" y2="1090"></line><ellipse cx="3623" cy="1103.6484" fill="none" rx="3" ry="3" style="stroke:#038048;stroke-width:1;"></ellipse><text fill="#000000" font-family="sans-serif" font-size="14" lengthAdjust="spacing" textLength="528.418" x="3632" y="1106.9951">&#34;bsi::ifc::v5a::class&#34; : &#34;{&#39;code&#39;: &#39;IfcWindow&#39;, &#39;uri&#39;: &#39; [...] /5/class/IfcWindow&#39;}&#34;</text><ellipse cx="3623" cy="1119.9453" fill="none" rx="3" ry="3" style="stroke:#038048;stroke-width:1;"></ellipse><text fill="#000000" font-family="sans-serif" font-size="14" lengthAdjust="spacing" textLength="272.6377" x="3632" y="1123.292">&#34;bsi::ifc::v5a::prop::isexternal&#34; : &#34;True&#34;</text><line style="stroke:#181818;stroke-width:0.5;" x1="3613" x2="4165.418" y1="1130.5938" y2="1130.5938"></line><polygon fill="#FFFF44" points="3623,1139.2422,3627,1143.2422,3623,1147.2422,3619,1143.2422" style="stroke:#B38D22;stroke-width:1;"></polygon><text fill="#000000" font-family="sans-serif" font-size="14" lengthAdjust="spacing" textLength="513.0371" x="3632" y="1147.5889">&#34;customdata&#34; : &#34;{&#39;originalStepInstance&#39;: &#34;This [...] ,.NOTDEFINED.,$,$)&#34;}&#34;</text></g><g class="entity" id="entity_1ea5c0ac-b13b-4ead-aa94-26d4dd36823e"><rect fill="#F1F1F1" height="48" rx="2.5" ry="2.5" style="stroke:#181818;stroke-width:0.5;" width="332.1729" x="3079" y="7"></rect><ellipse cx="3094" cy="23" fill="#ADD1B2" rx="11" ry="11" style="stroke:#181818;stroke-width:1;"></ellipse><path d="M3096.9688,28.6406 Q3096.3906,28.9375 3095.75,29.0781 Q3095.1094,29.2344 3094.4063,29.2344 Q3091.9063,29.2344 3090.5781,27.5938 Q3089.2656,25.9375 3089.2656,22.8125 Q3089.2656,19.6875 3090.5781,18.0313 Q3091.9063,16.375 3094.4063,16.375 Q3095.1094,16.375 3095.75,16.5313 Q3096.4063,16.6875 3096.9688,16.9844 L3096.9688,19.7031 Q3096.3438,19.125 3095.75,18.8594 Q3095.1563,18.5781 3094.5313,18.5781 Q3093.1875,18.5781 3092.5,19.6563 Q3091.8125,20.7188 3091.8125,22.8125 Q3091.8125,24.9063 3092.5,25.9844 Q3093.1875,27.0469 3094.5313,27.0469 Q3095.1563,27.0469 3095.75,26.7813 Q3096.3438,26.5 3096.9688,25.9219 L3096.9688,28.6406 Z " fill="#000000"></path><text fill="#000000" font-family="sans-serif" font-size="14" lengthAdjust="spacing" textLength="300.1729" x="3108" y="27.8467">1ea5c0ac-b13b-4ead-aa94-26d4dd36823e</text><line style="stroke:#181818;stroke-width:0.5;" x1="3080" x2="3410.1729" y1="39" y2="39"></line><line style="stroke:#181818;stroke-width:0.5;" x1="3080" x2="3410.1729" y1="47" y2="47"></line></g><g class="entity" id="entity_08aa04b9-4ca7-45e0-9549-9154fef2828b"><rect fill="#F1F1F1" height="80.5938" rx="2.5" ry="2.5" style="stroke:#181818;stroke-width:0.5;" width="537.7383" x="2976" y="115"></rect><ellipse cx="3093.3901" cy="131" fill="#ADD1B2" rx="11" ry="11" style="stroke:#181818;stroke-width:1;"></ellipse><path d="M3096.3589,136.6406 Q3095.7808,136.9375 3095.1401,137.0781 Q3094.4995,137.2344 3093.7964,137.2344 Q3091.2964,137.2344 3089.9683,135.5938 Q3088.6558,133.9375 3088.6558,130.8125 Q3088.6558,127.6875 3089.9683,126.0313 Q3091.2964,124.375 3093.7964,124.375 Q3094.4995,124.375 3095.1401,124.5313 Q3095.7964,124.6875 3096.3589,124.9844 L3096.3589,127.7031 Q3095.7339,127.125 3095.1401,126.8594 Q3094.5464,126.5781 3093.9214,126.5781 Q3092.5776,126.5781 3091.8901,127.6563 Q3091.2026,128.7188 3091.2026,130.8125 Q3091.2026,132.9063 3091.8901,133.9844 Q3092.5776,135.0469 3093.9214,135.0469 Q3094.5464,135.0469 3095.1401,134.7813 Q3095.7339,134.5 3096.3589,133.9219 L3096.3589,136.6406 Z " fill="#000000"></path><text fill="#000000" font-family="sans-serif" font-size="14" lengthAdjust="spacing" textLength="294.458" x="3113.8901" y="135.8467">08aa04b9-4ca7-45e0-9549-9154fef2828b</text><line style="stroke:#181818;stroke-width:0.5;" x1="2977" x2="3512.7383" y1="147" y2="147"></line><ellipse cx="2987" cy="160.6484" fill="none" rx="3" ry="3" style="stroke:#038048;stroke-width:1;"></ellipse><text fill="#000000" font-family="sans-serif" font-size="14" lengthAdjust="spacing" textLength="505.7432" x="2996" y="163.9951">&#34;bsi::ifc::v5a::class&#34; : &#34;{&#39;code&#39;: &#39;IfcProject&#39;, &#39;uri&#39;:  [...] 5/class/IfcProject&#39;}&#34;</text><line style="stroke:#181818;stroke-width:0.5;" x1="2977" x2="3512.7383" y1="171.2969" y2="171.2969"></line><polygon fill="#FFFF44" points="2987,179.9453,2991,183.9453,2987,187.9453,2983,183.9453" style="stroke:#B38D22;stroke-width:1;"></polygon><text fill="#000000" font-family="sans-serif" font-size="14" lengthAdjust="spacing" textLength="511.7383" x="2996" y="188.292">&#34;customdata&#34; : &#34;{&#39;originalStepInstance&#39;: &#34;This [...] ,$,$,(#14,#26),#9)&#34;}&#34;</text></g><g class="entity" id="entity_8adf3b8f-f34a-4687-a406-5063ee095a1a"><rect fill="#F1F1F1" height="80.5938" rx="2.5" ry="2.5" style="stroke:#181818;stroke-width:0.5;" width="524.1484" x="2983" y="256"></rect><ellipse cx="3095.3076" cy="272" fill="#ADD1B2" rx="11" ry="11" style="stroke:#181818;stroke-width:1;"></ellipse><path d="M3098.2764,277.6406 Q3097.6982,277.9375 3097.0576,278.0781 Q3096.417,278.2344 3095.7139,278.2344 Q3093.2139,278.2344 3091.8857,276.5938 Q3090.5732,274.9375 3090.5732,271.8125 Q3090.5732,268.6875 3091.8857,267.0313 Q3093.2139,265.375 3095.7139,265.375 Q3096.417,265.375 3097.0576,265.5313 Q3097.7139,265.6875 3098.2764,265.9844 L3098.2764,268.7031 Q3097.6514,268.125 3097.0576,267.8594 Q3096.4639,267.5781 3095.8389,267.5781 Q3094.4951,267.5781 3093.8076,268.6563 Q3093.1201,269.7188 3093.1201,271.8125 Q3093.1201,273.9063 3093.8076,274.9844 Q3094.4951,276.0469 3095.8389,276.0469 Q3096.4639,276.0469 3097.0576,275.7813 Q3097.6514,275.5 3098.2764,274.9219 L3098.2764,277.6406 Z " fill="#000000"></path><text fill="#000000" font-family="sans-serif" font-size="14" lengthAdjust="spacing" textLength="291.0332" x="3115.8076" y="276.8467">8adf3b8f-f34a-4687-a406-5063ee095a1a</text><line style="stroke:#181818;stroke-width:0.5;" x1="2984" x2="3506.1484" y1="288" y2="288"></line><ellipse cx="2994" cy="301.6484" fill="none" rx="3" ry="3" style="stroke:#038048;stroke-width:1;"></ellipse><text fill="#000000" font-family="sans-serif" font-size="14" lengthAdjust="spacing" textLength="498.1484" x="3003" y="304.9951">&#34;bsi::ifc::v5a::class&#34; : &#34;{&#39;code&#39;: &#39;IfcSite&#39;, &#39;uri&#39;: &#39;ht [...] fc/5/class/IfcSite&#39;}&#34;</text><line style="stroke:#181818;stroke-width:0.5;" x1="2984" x2="3506.1484" y1="312.2969" y2="312.2969"></line><polygon fill="#FFFF44" points="2994,320.9453,2998,324.9453,2994,328.9453,2990,324.9453" style="stroke:#B38D22;stroke-width:1;"></polygon><text fill="#000000" font-family="sans-serif" font-size="14" lengthAdjust="spacing" textLength="496.7881" x="3003" y="329.292">&#34;customdata&#34; : &#34;{&#39;originalStepInstance&#39;: &#34;This [...] 3,$,$,$,$,$,$,$,$)&#34;}&#34;</text></g><g class="entity" id="entity_2ddfa76e-ab37-42f2-8e37-ef5780d732e8"><rect fill="#F1F1F1" height="80.5938" rx="2.5" ry="2.5" style="stroke:#181818;stroke-width:0.5;" width="535.0654" x="2977.5" y="397"></rect><ellipse cx="3095.0884" cy="413" fill="#ADD1B2" rx="11" ry="11" style="stroke:#181818;stroke-width:1;"></ellipse><path d="M3098.0571,418.6406 Q3097.479,418.9375 3096.8384,419.0781 Q3096.1978,419.2344 3095.4946,419.2344 Q3092.9946,419.2344 3091.6665,417.5938 Q3090.354,415.9375 3090.354,412.8125 Q3090.354,409.6875 3091.6665,408.0313 Q3092.9946,406.375 3095.4946,406.375 Q3096.1978,406.375 3096.8384,406.5313 Q3097.4946,406.6875 3098.0571,406.9844 L3098.0571,409.7031 Q3097.4321,409.125 3096.8384,408.8594 Q3096.2446,408.5781 3095.6196,408.5781 Q3094.2759,408.5781 3093.5884,409.6563 Q3092.9009,410.7188 3092.9009,412.8125 Q3092.9009,414.9063 3093.5884,415.9844 Q3094.2759,417.0469 3095.6196,417.0469 Q3096.2446,417.0469 3096.8384,416.7813 Q3097.4321,416.5 3098.0571,415.9219 L3098.0571,418.6406 Z " fill="#000000"></path><text fill="#000000" font-family="sans-serif" font-size="14" lengthAdjust="spacing" textLength="291.3887" x="3115.5884" y="417.8467">2ddfa76e-ab37-42f2-8e37-ef5780d732e8</text><line style="stroke:#181818;stroke-width:0.5;" x1="2978.5" x2="3511.5654" y1="429" y2="429"></line><ellipse cx="2988.5" cy="442.6484" fill="none" rx="3" ry="3" style="stroke:#038048;stroke-width:1;"></ellipse><text fill="#000000" font-family="sans-serif" font-size="14" lengthAdjust="spacing" textLength="509.0654" x="2997.5" y="445.9951">&#34;bsi::ifc::v5a::class&#34; : &#34;{&#39;code&#39;: &#39;IfcBuilding&#39;, &#39;uri&#39;: [...] /class/IfcBuilding&#39;}&#34;</text><line style="stroke:#181818;stroke-width:0.5;" x1="2978.5" x2="3511.5654" y1="453.2969" y2="453.2969"></line><polygon fill="#FFFF44" points="2988.5,461.9453,2992.5,465.9453,2988.5,469.9453,2984.5,465.9453" style="stroke:#B38D22;stroke-width:1;"></polygon><text fill="#000000" font-family="sans-serif" font-size="14" lengthAdjust="spacing" textLength="504.0684" x="2997.5" y="470.292">&#34;customdata&#34; : &#34;{&#39;originalStepInstance&#39;: &#34;This [...] $,#59,$,$,$,$,$,$)&#34;}&#34;</text></g><g class="entity" id="entity_5a26bd1d-fa44-4aaa-9a5e-91a06eed2e52"><rect fill="#F1F1F1" height="80.5938" rx="2.5" ry="2.5" style="stroke:#181818;stroke-width:0.5;" width="555.8535" x="2967" y="538"></rect><ellipse cx="3091.8242" cy="554" fill="#ADD1B2" rx="11" ry="11" style="stroke:#181818;stroke-width:1;"></ellipse><path d="M3094.793,559.6406 Q3094.2148,559.9375 3093.5742,560.0781 Q3092.9336,560.2344 3092.2305,560.2344 Q3089.7305,560.2344 3088.4023,558.5938 Q3087.0898,556.9375 3087.0898,553.8125 Q3087.0898,550.6875 3088.4023,549.0313 Q3089.7305,547.375 3092.2305,547.375 Q3092.9336,547.375 3093.5742,547.5313 Q3094.2305,547.6875 3094.793,547.9844 L3094.793,550.7031 Q3094.168,550.125 3093.5742,549.8594 Q3092.9805,549.5781 3092.3555,549.5781 Q3091.0117,549.5781 3090.3242,550.6563 Q3089.6367,551.7188 3089.6367,553.8125 Q3089.6367,555.9063 3090.3242,556.9844 Q3091.0117,558.0469 3092.3555,558.0469 Q3092.9805,558.0469 3093.5742,557.7813 Q3094.168,557.5 3094.793,556.9219 L3094.793,559.6406 Z " fill="#000000"></path><text fill="#000000" font-family="sans-serif" font-size="14" lengthAdjust="spacing" textLength="297.7051" x="3112.3242" y="558.8467">5a26bd1d-fa44-4aaa-9a5e-91a06eed2e52</text><line style="stroke:#181818;stroke-width:0.5;" x1="2968" x2="3521.8535" y1="570" y2="570"></line><ellipse cx="2978" cy="583.6484" fill="none" rx="3" ry="3" style="stroke:#038048;stroke-width:1;"></ellipse><text fill="#000000" font-family="sans-serif" font-size="14" lengthAdjust="spacing" textLength="529.8535" x="2987" y="586.9951">&#34;bsi::ifc::v5a::class&#34; : &#34;{&#39;code&#39;: &#39;IfcBuildingStorey&#39;,  [...] /IfcBuildingStorey&#39;}&#34;</text><line style="stroke:#181818;stroke-width:0.5;" x1="2968" x2="3521.8535" y1="594.2969" y2="594.2969"></line><polygon fill="#FFFF44" points="2978,602.9453,2982,606.9453,2978,610.9453,2974,606.9453" style="stroke:#B38D22;stroke-width:1;"></polygon><text fill="#000000" font-family="sans-serif" font-size="14" lengthAdjust="spacing" textLength="499.0098" x="2987" y="611.292">&#34;customdata&#34; : &#34;{&#39;originalStepInstance&#39;: &#34;This [...] &#39;,$,$,#65,$,$,$,$)&#34;}&#34;</text></g><g class="entity" id="entity_f079bafd-8733-48d8-85df-1c1656a17c1f"><rect fill="#F1F1F1" height="129.4844" rx="2.5" ry="2.5" style="stroke:#181818;stroke-width:0.5;" width="545.2988" x="1768.5" y="687.5"></rect><ellipse cx="1893.8164" cy="703.5" fill="#ADD1B2" rx="11" ry="11" style="stroke:#181818;stroke-width:1;"></ellipse><path d="M1896.7852,709.1406 Q1896.207,709.4375 1895.5664,709.5781 Q1894.9258,709.7344 1894.2227,709.7344 Q1891.7227,709.7344 1890.3945,708.0938 Q1889.082,706.4375 1889.082,703.3125 Q1889.082,700.1875 1890.3945,698.5313 Q1891.7227,696.875 1894.2227,696.875 Q1894.9258,696.875 1895.5664,697.0313 Q1896.2227,697.1875 1896.7852,697.4844 L1896.7852,700.2031 Q1896.1602,699.625 1895.5664,699.3594 Q1894.9727,699.0781 1894.3477,699.0781 Q1893.0039,699.0781 1892.3164,700.1563 Q1891.6289,701.2188 1891.6289,703.3125 Q1891.6289,705.4063 1892.3164,706.4844 Q1893.0039,707.5469 1894.3477,707.5469 Q1894.9727,707.5469 1895.5664,707.2813 Q1896.1602,707 1896.7852,706.4219 L1896.7852,709.1406 Z " fill="#000000"></path><text fill="#000000" font-family="sans-serif" font-size="14" lengthAdjust="spacing" textLength="286.166" x="1914.3164" y="708.3467">f079bafd-8733-48d8-85df-1c1656a17c1f</text><line style="stroke:#181818;stroke-width:0.5;" x1="1769.5" x2="2312.7988" y1="719.5" y2="719.5"></line><ellipse cx="1779.5" cy="733.1484" fill="none" rx="3" ry="3" style="stroke:#038048;stroke-width:1;"></ellipse><text fill="#000000" font-family="sans-serif" font-size="14" lengthAdjust="spacing" textLength="519.2988" x="1788.5" y="736.4951">&#34;bsi::ifc::v5a::class&#34; : &#34;{&#39;code&#39;: &#39;IfcSpace&#39;, &#39;uri&#39;: &#39;h [...] c/5/class/IfcSpace&#39;}&#34;</text><ellipse cx="1779.5" cy="749.4453" fill="none" rx="3" ry="3" style="stroke:#038048;stroke-width:1;"></ellipse><text fill="#000000" font-family="sans-serif" font-size="14" lengthAdjust="spacing" textLength="254.5977" x="1788.5" y="752.792">&#34;bsi::ifc::v5a::prop::volume&#34; : &#34;27.3&#34;</text><ellipse cx="1779.5" cy="765.7422" fill="none" rx="3" ry="3" style="stroke:#038048;stroke-width:1;"></ellipse><text fill="#000000" font-family="sans-serif" font-size="14" lengthAdjust="spacing" textLength="238.4512" x="1788.5" y="769.0889">&#34;bsi::ifc::v5a::prop::height&#34; : &#34;3.5&#34;</text><polygon fill="none" points="1779.5,778.0391,1775.5,784.0391,1783.5,784.0391" style="stroke:#1963A0;stroke-width:1;"></polygon><text fill="#000000" font-family="sans-serif" font-size="14" lengthAdjust="spacing" textLength="506.8164" x="1788.5" y="785.3857">&#34;usd::xformop&#34; : &#34;{&#39;transform&#39;: [[1, 0, 0, 0], [ [...] 00023841858, 0, 1]]}&#34;</text><line style="stroke:#181818;stroke-width:0.5;" x1="1769.5" x2="2312.7988" y1="792.6875" y2="792.6875"></line><polygon fill="#FFFF44" points="1779.5,801.3359,1783.5,805.3359,1779.5,809.3359,1775.5,805.3359" style="stroke:#B38D22;stroke-width:1;"></polygon><text fill="#000000" font-family="sans-serif" font-size="14" lengthAdjust="spacing" textLength="506.6934" x="1788.5" y="809.6826">&#34;customdata&#34; : &#34;{&#39;originalStepInstance&#39;: &#34;This [...] 509,$,$,.SPACE.,$)&#34;}&#34;</text></g><g class="entity" id="entity_13168941-10d9-4c6a-8c63-505cc302312c"><rect fill="#F1F1F1" height="145.7813" rx="2.5" ry="2.5" style="stroke:#181818;stroke-width:0.5;" width="546.2627" x="4783" y="679"></rect><ellipse cx="4902.4614" cy="695" fill="#ADD1B2" rx="11" ry="11" style="stroke:#181818;stroke-width:1;"></ellipse><path d="M4905.4302,700.6406 Q4904.8521,700.9375 4904.2114,701.0781 Q4903.5708,701.2344 4902.8677,701.2344 Q4900.3677,701.2344 4899.0396,699.5938 Q4897.7271,697.9375 4897.7271,694.8125 Q4897.7271,691.6875 4899.0396,690.0313 Q4900.3677,688.375 4902.8677,688.375 Q4903.5708,688.375 4904.2114,688.5313 Q4904.8677,688.6875 4905.4302,688.9844 L4905.4302,691.7031 Q4904.8052,691.125 4904.2114,690.8594 Q4903.6177,690.5781 4902.9927,690.5781 Q4901.6489,690.5781 4900.9614,691.6563 Q4900.2739,692.7188 4900.2739,694.8125 Q4900.2739,696.9063 4900.9614,697.9844 Q4901.6489,699.0469 4902.9927,699.0469 Q4903.6177,699.0469 4904.2114,698.7813 Q4904.8052,698.5 4905.4302,697.9219 L4905.4302,700.6406 Z " fill="#000000"></path><text fill="#000000" font-family="sans-serif" font-size="14" lengthAdjust="spacing" textLength="298.8398" x="4922.9614" y="699.8467">13168941-10d9-4c6a-8c63-505cc302312c</text><line style="stroke:#181818;stroke-width:0.5;" x1="4784" x2="5328.2627" y1="711" y2="711"></line><ellipse cx="4794" cy="724.6484" fill="none" rx="3" ry="3" style="stroke:#038048;stroke-width:1;"></ellipse><text fill="#000000" font-family="sans-serif" font-size="14" lengthAdjust="spacing" textLength="504.793" x="4803" y="727.9951">&#34;bsi::ifc::v5a::class&#34; : &#34;{&#39;code&#39;: &#39;IfcWall&#39;, &#39;uri&#39;: &#39;ht [...] fc/5/class/IfcWall&#39;}&#34;</text><ellipse cx="4794" cy="740.9453" fill="none" rx="3" ry="3" style="stroke:#038048;stroke-width:1;"></ellipse><text fill="#000000" font-family="sans-serif" font-size="14" lengthAdjust="spacing" textLength="272.6377" x="4803" y="744.292">&#34;bsi::ifc::v5a::prop::isexternal&#34; : &#34;True&#34;</text><ellipse cx="4794" cy="757.2422" fill="none" rx="3" ry="3" style="stroke:#038048;stroke-width:1;"></ellipse><text fill="#000000" font-family="sans-serif" font-size="14" lengthAdjust="spacing" textLength="245.6904" x="4803" y="760.5889">&#34;bsi::ifc::v5a::prop::volume&#34; : &#34;0.9&#34;</text><ellipse cx="4794" cy="773.5391" fill="none" rx="3" ry="3" style="stroke:#038048;stroke-width:1;"></ellipse><text fill="#000000" font-family="sans-serif" font-size="14" lengthAdjust="spacing" textLength="238.4512" x="4803" y="776.8857">&#34;bsi::ifc::v5a::prop::height&#34; : &#34;3.5&#34;</text><polygon fill="none" points="4794,784.8359,4798,788.8359,4794,792.8359,4790,788.8359" style="stroke:#B38D22;stroke-width:1;"></polygon><text fill="#000000" font-family="sans-serif" font-size="14" lengthAdjust="spacing" textLength="476.6084" x="4803" y="793.1826">&#34;nlsfb::class&#34; : &#34;{&#39;code&#39;: &#39;21.21&#39;, &#39;uri&#39;: &#39;http [...] 05/2.2/class/21.21&#39;}&#34;</text><line style="stroke:#181818;stroke-width:0.5;" x1="4784" x2="5328.2627" y1="800.4844" y2="800.4844"></line><polygon fill="#FFFF44" points="4794,809.1328,4798,813.1328,4794,817.1328,4790,813.1328" style="stroke:#B38D22;stroke-width:1;"></polygon><text fill="#000000" font-family="sans-serif" font-size="14" lengthAdjust="spacing" textLength="520.2627" x="4803" y="817.4795">&#34;customdata&#34; : &#34;{&#39;originalStepInstance&#39;: &#34;This [...] $,#1235,#1230,$,$)&#34;}&#34;</text></g><g class="entity" id="entity_82966dcf-41fc-4776-97f1-71d9cb52ab7e"><rect fill="#F1F1F1" height="96.8906" rx="2.5" ry="2.5" style="stroke:#181818;stroke-width:0.5;" width="534.5254" x="3336.5" y="885"></rect><ellipse cx="3455.0283" cy="901" fill="#ADD1B2" rx="11" ry="11" style="stroke:#181818;stroke-width:1;"></ellipse><path d="M3457.9971,906.6406 Q3457.4189,906.9375 3456.7783,907.0781 Q3456.1377,907.2344 3455.4346,907.2344 Q3452.9346,907.2344 3451.6064,905.5938 Q3450.2939,903.9375 3450.2939,900.8125 Q3450.2939,897.6875 3451.6064,896.0313 Q3452.9346,894.375 3455.4346,894.375 Q3456.1377,894.375 3456.7783,894.5313 Q3457.4346,894.6875 3457.9971,894.9844 L3457.9971,897.7031 Q3457.3721,897.125 3456.7783,896.8594 Q3456.1846,896.5781 3455.5596,896.5781 Q3454.2158,896.5781 3453.5283,897.6563 Q3452.8408,898.7188 3452.8408,900.8125 Q3452.8408,902.9063 3453.5283,903.9844 Q3454.2158,905.0469 3455.5596,905.0469 Q3456.1846,905.0469 3456.7783,904.7813 Q3457.3721,904.5 3457.9971,903.9219 L3457.9971,906.6406 Z " fill="#000000"></path><text fill="#000000" font-family="sans-serif" font-size="14" lengthAdjust="spacing" textLength="288.9688" x="3475.5283" y="905.8467">82966dcf-41fc-4776-97f1-71d9cb52ab7e</text><line style="stroke:#181818;stroke-width:0.5;" x1="3337.5" x2="3870.0254" y1="917" y2="917"></line><ellipse cx="3347.5" cy="930.6484" fill="none" rx="3" ry="3" style="stroke:#038048;stroke-width:1;"></ellipse><text fill="#000000" font-family="sans-serif" font-size="14" lengthAdjust="spacing" textLength="246.0322" x="3356.5" y="933.9951">&#34;bsi::name&#34; : &#34;Instance of Window&#34;</text><polygon fill="none" points="3347.5,942.9453,3343.5,948.9453,3351.5,948.9453" style="stroke:#1963A0;stroke-width:1;"></polygon><text fill="#000000" font-family="sans-serif" font-size="14" lengthAdjust="spacing" textLength="497.9023" x="3356.5" y="950.292">&#34;usd::xformop&#34; : &#34;{&#39;transform&#39;: [[1, 0, 0, 0], [ [...] 92294312, 0, 1, 1]]}&#34;</text><line style="stroke:#181818;stroke-width:0.5;" x1="3337.5" x2="3870.0254" y1="957.5938" y2="957.5938"></line><polygon fill="#FFFF44" points="3347.5,966.2422,3351.5,970.2422,3347.5,974.2422,3343.5,970.2422" style="stroke:#B38D22;stroke-width:1;"></polygon><text fill="#000000" font-family="sans-serif" font-size="14" lengthAdjust="spacing" textLength="508.5254" x="3356.5" y="974.5889">&#34;customdata&#34; : &#34;{&#39;originalStepInstance&#39;: &#34;This [...] #1291,$,$,$,$,$,$)&#34;}&#34;</text></g><g class="entity" id="entity_8134f9ec-2e87-4b70-a538-9b6dc7ba94b1"><rect fill="#F1F1F1" height="96.8906" rx="2.5" ry="2.5" style="stroke:#181818;stroke-width:0.5;" width="534.5254" x="3906.5" y="885"></rect><ellipse cx="4020.7661" cy="901" fill="#ADD1B2" rx="11" ry="11" style="stroke:#181818;stroke-width:1;"></ellipse><path d="M4023.7349,906.6406 Q4023.1567,906.9375 4022.5161,907.0781 Q4021.8755,907.2344 4021.1724,907.2344 Q4018.6724,907.2344 4017.3442,905.5938 Q4016.0317,903.9375 4016.0317,900.8125 Q4016.0317,897.6875 4017.3442,896.0313 Q4018.6724,894.375 4021.1724,894.375 Q4021.8755,894.375 4022.5161,894.5313 Q4023.1724,894.6875 4023.7349,894.9844 L4023.7349,897.7031 Q4023.1099,897.125 4022.5161,896.8594 Q4021.9224,896.5781 4021.2974,896.5781 Q4019.9536,896.5781 4019.2661,897.6563 Q4018.5786,898.7188 4018.5786,900.8125 Q4018.5786,902.9063 4019.2661,903.9844 Q4019.9536,905.0469 4021.2974,905.0469 Q4021.9224,905.0469 4022.5161,904.7813 Q4023.1099,904.5 4023.7349,903.9219 L4023.7349,906.6406 Z " fill="#000000"></path><text fill="#000000" font-family="sans-serif" font-size="14" lengthAdjust="spacing" textLength="297.4932" x="4041.2661" y="905.8467">8134f9ec-2e87-4b70-a538-9b6dc7ba94b1</text><line style="stroke:#181818;stroke-width:0.5;" x1="3907.5" x2="4440.0254" y1="917" y2="917"></line><ellipse cx="3917.5" cy="930.6484" fill="none" rx="3" ry="3" style="stroke:#038048;stroke-width:1;"></ellipse><text fill="#000000" font-family="sans-serif" font-size="14" lengthAdjust="spacing" textLength="279.7539" x="3926.5" y="933.9951">&#34;bsi::name&#34; : &#34;Instance of Window_001&#34;</text><polygon fill="none" points="3917.5,942.9453,3913.5,948.9453,3921.5,948.9453" style="stroke:#1963A0;stroke-width:1;"></polygon><text fill="#000000" font-family="sans-serif" font-size="14" lengthAdjust="spacing" textLength="497.9023" x="3926.5" y="950.292">&#34;usd::xformop&#34; : &#34;{&#39;transform&#39;: [[1, 0, 0, 0], [ [...] 63604736, 0, 1, 1]]}&#34;</text><line style="stroke:#181818;stroke-width:0.5;" x1="3907.5" x2="4440.0254" y1="957.5938" y2="957.5938"></line><polygon fill="#FFFF44" points="3917.5,966.2422,3921.5,970.2422,3917.5,974.2422,3913.5,970.2422" style="stroke:#B38D22;stroke-width:1;"></polygon><text fill="#000000" font-family="sans-serif" font-size="14" lengthAdjust="spacing" textLength="508.5254" x="3926.5" y="974.5889">&#34;customdata&#34; : &#34;{&#39;originalStepInstance&#39;: &#34;This [...] #1435,$,$,$,$,$,$)&#34;}&#34;</text></g><g class="entity" id="entity_4fd67c00-82cf-476d-b5dd-6a06b07c6141"><rect fill="#F1F1F1" height="64.2969" rx="2.5" ry="2.5" style="stroke:#181818;stroke-width:0.5;" width="655.7813" x="7" y="901.5"></rect><ellipse cx="184.0405" cy="917.5" fill="#ADD1B2" rx="11" ry="11" style="stroke:#181818;stroke-width:1;"></ellipse><path d="M187.0093,923.1406 Q186.4312,923.4375 185.7905,923.5781 Q185.1499,923.7344 184.4468,923.7344 Q181.9468,923.7344 180.6187,922.0938 Q179.3062,920.4375 179.3062,917.3125 Q179.3062,914.1875 180.6187,912.5313 Q181.9468,910.875 184.4468,910.875 Q185.1499,910.875 185.7905,911.0313 Q186.4468,911.1875 187.0093,911.4844 L187.0093,914.2031 Q186.3843,913.625 185.7905,913.3594 Q185.1968,913.0781 184.5718,913.0781 Q183.228,913.0781 182.5405,914.1563 Q181.853,915.2188 181.853,917.3125 Q181.853,919.4063 182.5405,920.4844 Q183.228,921.5469 184.5718,921.5469 Q185.1968,921.5469 185.7905,921.2813 Q186.3843,921 187.0093,920.4219 L187.0093,923.1406 Z " fill="#000000"></path><text fill="#000000" font-family="sans-serif" font-size="14" lengthAdjust="spacing" textLength="293.2002" x="204.5405" y="922.3467">4fd67c00-82cf-476d-b5dd-6a06b07c6141</text><line style="stroke:#181818;stroke-width:0.5;" x1="8" x2="661.7813" y1="933.5" y2="933.5"></line><ellipse cx="18" cy="947.1484" fill="none" rx="3" ry="3" style="stroke:#038048;stroke-width:1;"></ellipse><text fill="#000000" font-family="sans-serif" font-size="14" lengthAdjust="spacing" textLength="629.7813" x="27" y="950.4951">&#34;bsi::ifc::v5a::spaceboundary&#34; : &#34;{&#39;relatedElement&#39;: {&#39;ref&#39;: &#39;13 [...] 85df-1c1656a17c1f&#39;}}&#34;</text><line style="stroke:#181818;stroke-width:0.5;" x1="8" x2="661.7813" y1="957.7969" y2="957.7969"></line></g><g class="entity" id="entity_15226122-42a4-428d-9b9a-16566291c182"><rect fill="#F1F1F1" height="64.2969" rx="2.5" ry="2.5" style="stroke:#181818;stroke-width:0.5;" width="655.7813" x="698" y="901.5"></rect><ellipse cx="869.9751" cy="917.5" fill="#ADD1B2" rx="11" ry="11" style="stroke:#181818;stroke-width:1;"></ellipse><path d="M872.9438,923.1406 Q872.3657,923.4375 871.7251,923.5781 Q871.0845,923.7344 870.3813,923.7344 Q867.8813,923.7344 866.5532,922.0938 Q865.2407,920.4375 865.2407,917.3125 Q865.2407,914.1875 866.5532,912.5313 Q867.8813,910.875 870.3813,910.875 Q871.0845,910.875 871.7251,911.0313 Q872.3813,911.1875 872.9438,911.4844 L872.9438,914.2031 Q872.3188,913.625 871.7251,913.3594 Q871.1313,913.0781 870.5063,913.0781 Q869.1626,913.0781 868.4751,914.1563 Q867.7876,915.2188 867.7876,917.3125 Q867.7876,919.4063 868.4751,920.4844 Q869.1626,921.5469 870.5063,921.5469 Q871.1313,921.5469 871.7251,921.2813 Q872.3188,921 872.9438,920.4219 L872.9438,923.1406 Z " fill="#000000"></path><text fill="#000000" font-family="sans-serif" font-size="14" lengthAdjust="spacing" textLength="303.3311" x="890.4751" y="922.3467">15226122-42a4-428d-9b9a-16566291c182</text><line style="stroke:#181818;stroke-width:0.5;" x1="699" x2="1352.7813" y1="933.5" y2="933.5"></line><ellipse cx="709" cy="947.1484" fill="none" rx="3" ry="3" style="stroke:#038048;stroke-width:1;"></ellipse><text fill="#000000" font-family="sans-serif" font-size="14" lengthAdjust="spacing" textLength="629.7813" x="718" y="950.4951">&#34;bsi::ifc::v5a::spaceboundary&#34; : &#34;{&#39;relatedElement&#39;: {&#39;ref&#39;: &#39;82 [...] 85df-1c1656a17c1f&#39;}}&#34;</text><line style="stroke:#181818;stroke-width:0.5;" x1="699" x2="1352.7813" y1="957.7969" y2="957.7969"></line></g><g class="entity" id="entity_428b2888-1e0d-4f7b-b8ae-73236f626cea"><rect fill="#F1F1F1" height="64.2969" rx="2.5" ry="2.5" style="stroke:#181818;stroke-width:0.5;" width="655.7813" x="1389" y="901.5"></rect><ellipse cx="1565.415" cy="917.5" fill="#ADD1B2" rx="11" ry="11" style="stroke:#181818;stroke-width:1;"></ellipse><path d="M1568.3838,923.1406 Q1567.8057,923.4375 1567.165,923.5781 Q1566.5244,923.7344 1565.8213,923.7344 Q1563.3213,923.7344 1561.9932,922.0938 Q1560.6807,920.4375 1560.6807,917.3125 Q1560.6807,914.1875 1561.9932,912.5313 Q1563.3213,910.875 1565.8213,910.875 Q1566.5244,910.875 1567.165,911.0313 Q1567.8213,911.1875 1568.3838,911.4844 L1568.3838,914.2031 Q1567.7588,913.625 1567.165,913.3594 Q1566.5713,913.0781 1565.9463,913.0781 Q1564.6025,913.0781 1563.915,914.1563 Q1563.2275,915.2188 1563.2275,917.3125 Q1563.2275,919.4063 1563.915,920.4844 Q1564.6025,921.5469 1565.9463,921.5469 Q1566.5713,921.5469 1567.165,921.2813 Q1567.7588,921 1568.3838,920.4219 L1568.3838,923.1406 Z " fill="#000000"></path><text fill="#000000" font-family="sans-serif" font-size="14" lengthAdjust="spacing" textLength="294.4512" x="1585.915" y="922.3467">428b2888-1e0d-4f7b-b8ae-73236f626cea</text><line style="stroke:#181818;stroke-width:0.5;" x1="1390" x2="2043.7813" y1="933.5" y2="933.5"></line><ellipse cx="1400" cy="947.1484" fill="none" rx="3" ry="3" style="stroke:#038048;stroke-width:1;"></ellipse><text fill="#000000" font-family="sans-serif" font-size="14" lengthAdjust="spacing" textLength="629.7813" x="1409" y="950.4951">&#34;bsi::ifc::v5a::spaceboundary&#34; : &#34;{&#39;relatedElement&#39;: {&#39;ref&#39;: &#39;81 [...] 85df-1c1656a17c1f&#39;}}&#34;</text><line style="stroke:#181818;stroke-width:0.5;" x1="1390" x2="2043.7813" y1="957.7969" y2="957.7969"></line></g><g class="entity" id="entity_f83b2e90-81df-4cae-ad63-52a51009e561/Shader"><rect fill="#F1F1F1" height="129.4844" rx="2.5" ry="2.5" style="stroke:#181818;stroke-width:0.5;" width="407.2471" x="2587.5" y="1042"></rect><ellipse cx="2614.5564" cy="1058" fill="#FF77FF" rx="11" ry="11" style="stroke:#181818;stroke-width:1;"></ellipse><path d="M2614.0408,1058.5625 Q2612.1814,1057.8594 2611.5251,1057.0938 Q2610.8845,1056.3125 2610.8845,1055 Q2610.8845,1053.3125 2611.9626,1052.3438 Q2613.0408,1051.375 2614.9158,1051.375 Q2615.7751,1051.375 2616.6189,1051.5781 Q2617.4783,1051.7656 2618.322,1052.1563 L2618.322,1054.5469 Q2617.5408,1053.9844 2616.7126,1053.7031 Q2615.9001,1053.4063 2615.1033,1053.4063 Q2614.2283,1053.4063 2613.7439,1053.7656 Q2613.2751,1054.125 2613.2751,1054.7813 Q2613.2751,1055.2969 2613.6189,1055.6406 Q2613.9626,1055.9688 2615.0564,1056.375 L2616.1189,1056.7813 Q2617.6033,1057.3281 2618.3064,1058.2344 Q2619.0251,1059.1406 2619.0251,1060.5156 Q2619.0251,1062.3906 2617.9158,1063.3125 Q2616.8064,1064.2344 2614.5564,1064.2344 Q2613.6345,1064.2344 2612.7126,1064.0156 Q2611.7908,1063.7969 2610.9314,1063.375 L2610.9314,1060.8438 Q2611.9001,1061.5313 2612.822,1061.875 Q2613.7439,1062.2188 2614.6345,1062.2188 Q2615.5408,1062.2188 2616.0408,1061.8125 Q2616.5408,1061.3906 2616.5408,1060.6563 Q2616.5408,1060.0938 2616.197,1059.6875 Q2615.8689,1059.2656 2615.2439,1059.0156 L2614.0408,1058.5625 Z " fill="#000000"></path><text fill="#000000" font-family="sans-serif" font-size="14" lengthAdjust="spacing" textLength="348.4551" x="2631.2356" y="1062.8467">f83b2e90-81df-4cae-ad63-52a51009e561/Shader</text><line style="stroke:#181818;stroke-width:0.5;" x1="2588.5" x2="2993.7471" y1="1074" y2="1074"></line><ellipse cx="2598.5" cy="1087.6484" fill="none" rx="3" ry="3" style="stroke:#038048;stroke-width:1;"></ellipse><text fill="#000000" font-family="sans-serif" font-size="14" lengthAdjust="spacing" textLength="260.5723" x="2607.5" y="1090.9951">&#34;bsi::name&#34; : &#34;SpaceMaterial shader&#34;</text><polygon fill="none" points="2598.5,1099.9453,2594.5,1105.9453,2602.5,1105.9453" style="stroke:#1963A0;stroke-width:1;"></polygon><text fill="#000000" font-family="sans-serif" font-size="14" lengthAdjust="spacing" textLength="332.3018" x="2607.5" y="1107.292">&#34;usd::materials::info::id&#34; : &#34;UsdPreviewSurface&#34;</text><polygon fill="none" points="2598.5,1116.2422,2594.5,1122.2422,2602.5,1122.2422" style="stroke:#1963A0;stroke-width:1;"></polygon><text fill="#000000" font-family="sans-serif" font-size="14" lengthAdjust="spacing" textLength="381.2471" x="2607.5" y="1123.5889">&#34;usd::materials::inputs::diffuseColor&#34; : &#34;[0.6, 0.7, 0.8]&#34;</text><polygon fill="none" points="2598.5,1132.5391,2594.5,1138.5391,2602.5,1138.5391" style="stroke:#1963A0;stroke-width:1;"></polygon><text fill="#000000" font-family="sans-serif" font-size="14" lengthAdjust="spacing" textLength="275.4199" x="2607.5" y="1139.8857">&#34;usd::materials::inputs::opacity&#34; : &#34;0.3&#34;</text><polygon fill="none" points="2598.5,1148.8359,2594.5,1154.8359,2602.5,1154.8359" style="stroke:#1963A0;stroke-width:1;"></polygon><text fill="#000000" font-family="sans-serif" font-size="14" lengthAdjust="spacing" textLength="300.1934" x="2607.5" y="1156.1826">&#34;usd::materials::outputs::surface&#34; : &#34;None&#34;</text><line style="stroke:#181818;stroke-width:0.5;" x1="2588.5" x2="2993.7471" y1="1163.4844" y2="1163.4844"></line></g><g class="entity" id="entity_359c715f-5961-4c20-be08-9bb25ea75c24/Shader"><rect fill="#F1F1F1" height="129.4844" rx="2.5" ry="2.5" style="stroke:#181818;stroke-width:0.5;" width="407.2471" x="6625.5" y="1042"></rect><ellipse cx="6651.4274" cy="1058" fill="#FF77FF" rx="11" ry="11" style="stroke:#181818;stroke-width:1;"></ellipse><path d="M6650.9118,1058.5625 Q6649.0524,1057.8594 6648.3962,1057.0938 Q6647.7556,1056.3125 6647.7556,1055 Q6647.7556,1053.3125 6648.8337,1052.3438 Q6649.9118,1051.375 6651.7868,1051.375 Q6652.6462,1051.375 6653.4899,1051.5781 Q6654.3493,1051.7656 6655.1931,1052.1563 L6655.1931,1054.5469 Q6654.4118,1053.9844 6653.5837,1053.7031 Q6652.7712,1053.4063 6651.9743,1053.4063 Q6651.0993,1053.4063 6650.6149,1053.7656 Q6650.1462,1054.125 6650.1462,1054.7813 Q6650.1462,1055.2969 6650.4899,1055.6406 Q6650.8337,1055.9688 6651.9274,1056.375 L6652.9899,1056.7813 Q6654.4743,1057.3281 6655.1774,1058.2344 Q6655.8962,1059.1406 6655.8962,1060.5156 Q6655.8962,1062.3906 6654.7868,1063.3125 Q6653.6774,1064.2344 6651.4274,1064.2344 Q6650.5056,1064.2344 6649.5837,1064.0156 Q6648.6618,1063.7969 6647.8024,1063.375 L6647.8024,1060.8438 Q6648.7712,1061.5313 6649.6931,1061.875 Q6650.6149,1062.2188 6651.5056,1062.2188 Q6652.4118,1062.2188 6652.9118,1061.8125 Q6653.4118,1061.3906 6653.4118,1060.6563 Q6653.4118,1060.0938 6653.0681,1059.6875 Q6652.7399,1059.2656 6652.1149,1059.0156 L6650.9118,1058.5625 Z " fill="#000000"></path><text fill="#000000" font-family="sans-serif" font-size="14" lengthAdjust="spacing" textLength="350.9639" x="6667.8558" y="1062.8467">359c715f-5961-4c20-be08-9bb25ea75c24/Shader</text><line style="stroke:#181818;stroke-width:0.5;" x1="6626.5" x2="7031.7471" y1="1074" y2="1074"></line><ellipse cx="6636.5" cy="1087.6484" fill="none" rx="3" ry="3" style="stroke:#038048;stroke-width:1;"></ellipse><text fill="#000000" font-family="sans-serif" font-size="14" lengthAdjust="spacing" textLength="248.1104" x="6645.5" y="1090.9951">&#34;bsi::name&#34; : &#34;WallMaterial shader&#34;</text><polygon fill="none" points="6636.5,1099.9453,6632.5,1105.9453,6640.5,1105.9453" style="stroke:#1963A0;stroke-width:1;"></polygon><text fill="#000000" font-family="sans-serif" font-size="14" lengthAdjust="spacing" textLength="332.3018" x="6645.5" y="1107.292">&#34;usd::materials::info::id&#34; : &#34;UsdPreviewSurface&#34;</text><polygon fill="none" points="6636.5,1116.2422,6632.5,1122.2422,6640.5,1122.2422" style="stroke:#1963A0;stroke-width:1;"></polygon><text fill="#000000" font-family="sans-serif" font-size="14" lengthAdjust="spacing" textLength="381.2471" x="6645.5" y="1123.5889">&#34;usd::materials::inputs::diffuseColor&#34; : &#34;[0.8, 0.7, 0.6]&#34;</text><polygon fill="none" points="6636.5,1132.5391,6632.5,1138.5391,6640.5,1138.5391" style="stroke:#1963A0;stroke-width:1;"></polygon><text fill="#000000" font-family="sans-serif" font-size="14" lengthAdjust="spacing" textLength="262.0625" x="6645.5" y="1139.8857">&#34;usd::materials::inputs::opacity&#34; : &#34;1&#34;</text><polygon fill="none" points="6636.5,1148.8359,6632.5,1154.8359,6640.5,1154.8359" style="stroke:#1963A0;stroke-width:1;"></polygon><text fill="#000000" font-family="sans-serif" font-size="14" lengthAdjust="spacing" textLength="300.1934" x="6645.5" y="1156.1826">&#34;usd::materials::outputs::surface&#34; : &#34;None&#34;</text><line style="stroke:#181818;stroke-width:0.5;" x1="6626.5" x2="7031.7471" y1="1163.4844" y2="1163.4844"></line></g><g class="entity" id="entity_82c0b0b0-1452-4fd9-b80d-20b9ee76a115/Shader"><rect fill="#F1F1F1" height="129.4844" rx="2.5" ry="2.5" style="stroke:#181818;stroke-width:0.5;" width="407.2471" x="4116.5" y="1372"></rect><ellipse cx="4141.3662" cy="1388" fill="#FF77FF" rx="11" ry="11" style="stroke:#181818;stroke-width:1;"></ellipse><path d="M4140.8505,1388.5625 Q4138.9912,1387.8594 4138.3349,1387.0938 Q4137.6943,1386.3125 4137.6943,1385 Q4137.6943,1383.3125 4138.7724,1382.3438 Q4139.8505,1381.375 4141.7255,1381.375 Q4142.5849,1381.375 4143.4287,1381.5781 Q4144.288,1381.7656 4145.1318,1382.1563 L4145.1318,1384.5469 Q4144.3505,1383.9844 4143.5224,1383.7031 Q4142.7099,1383.4063 4141.913,1383.4063 Q4141.038,1383.4063 4140.5537,1383.7656 Q4140.0849,1384.125 4140.0849,1384.7813 Q4140.0849,1385.2969 4140.4287,1385.6406 Q4140.7724,1385.9688 4141.8662,1386.375 L4142.9287,1386.7813 Q4144.413,1387.3281 4145.1162,1388.2344 Q4145.8349,1389.1406 4145.8349,1390.5156 Q4145.8349,1392.3906 4144.7255,1393.3125 Q4143.6162,1394.2344 4141.3662,1394.2344 Q4140.4443,1394.2344 4139.5224,1394.0156 Q4138.6005,1393.7969 4137.7412,1393.375 L4137.7412,1390.8438 Q4138.7099,1391.5313 4139.6318,1391.875 Q4140.5537,1392.2188 4141.4443,1392.2188 Q4142.3505,1392.2188 4142.8505,1391.8125 Q4143.3505,1391.3906 4143.3505,1390.6563 Q4143.3505,1390.0938 4143.0068,1389.6875 Q4142.6787,1389.2656 4142.0537,1389.0156 L4140.8505,1388.5625 Z " fill="#000000"></path><text fill="#000000" font-family="sans-serif" font-size="14" lengthAdjust="spacing" textLength="353.3223" x="4157.5586" y="1392.8467">82c0b0b0-1452-4fd9-b80d-20b9ee76a115/Shader</text><line style="stroke:#181818;stroke-width:0.5;" x1="4117.5" x2="4522.7471" y1="1404" y2="1404"></line><ellipse cx="4127.5" cy="1417.6484" fill="none" rx="3" ry="3" style="stroke:#038048;stroke-width:1;"></ellipse><text fill="#000000" font-family="sans-serif" font-size="14" lengthAdjust="spacing" textLength="273.417" x="4136.5" y="1420.9951">&#34;bsi::name&#34; : &#34;WindowMaterial shader&#34;</text><polygon fill="none" points="4127.5,1429.9453,4123.5,1435.9453,4131.5,1435.9453" style="stroke:#1963A0;stroke-width:1;"></polygon><text fill="#000000" font-family="sans-serif" font-size="14" lengthAdjust="spacing" textLength="332.3018" x="4136.5" y="1437.292">&#34;usd::materials::info::id&#34; : &#34;UsdPreviewSurface&#34;</text><polygon fill="none" points="4127.5,1446.2422,4123.5,1452.2422,4131.5,1452.2422" style="stroke:#1963A0;stroke-width:1;"></polygon><text fill="#000000" font-family="sans-serif" font-size="14" lengthAdjust="spacing" textLength="381.2471" x="4136.5" y="1453.5889">&#34;usd::materials::inputs::diffuseColor&#34; : &#34;[0.6, 0.5, 0.4]&#34;</text><polygon fill="none" points="4127.5,1462.5391,4123.5,1468.5391,4131.5,1468.5391" style="stroke:#1963A0;stroke-width:1;"></polygon><text fill="#000000" font-family="sans-serif" font-size="14" lengthAdjust="spacing" textLength="275.4199" x="4136.5" y="1469.8857">&#34;usd::materials::inputs::opacity&#34; : &#34;0.8&#34;</text><polygon fill="none" points="4127.5,1478.8359,4123.5,1484.8359,4131.5,1484.8359" style="stroke:#1963A0;stroke-width:1;"></polygon><text fill="#000000" font-family="sans-serif" font-size="14" lengthAdjust="spacing" textLength="300.1934" x="4136.5" y="1486.1826">&#34;usd::materials::outputs::surface&#34; : &#34;None&#34;</text><line style="stroke:#181818;stroke-width:0.5;" x1="4117.5" x2="4522.7471" y1="1493.4844" y2="1493.4844"></line></g><g class="entity" id="entity_4a4b35e6-05c0-4abe-8594-aa7b42d8ff58"><rect fill="#F1F1F1" height="80.5938" rx="2.5" ry="2.5" style="stroke:#181818;stroke-width:0.5;" width="591.4482" x="2975.5" y="1231"></rect><ellipse cx="3119.9297" cy="1247" fill="#ADD1B2" rx="11" ry="11" style="stroke:#181818;stroke-width:1;"></ellipse><path d="M3122.8984,1252.6406 Q3122.3203,1252.9375 3121.6797,1253.0781 Q3121.0391,1253.2344 3120.3359,1253.2344 Q3117.8359,1253.2344 3116.5078,1251.5938 Q3115.1953,1249.9375 3115.1953,1246.8125 Q3115.1953,1243.6875 3116.5078,1242.0313 Q3117.8359,1240.375 3120.3359,1240.375 Q3121.0391,1240.375 3121.6797,1240.5313 Q3122.3359,1240.6875 3122.8984,1240.9844 L3122.8984,1243.7031 Q3122.2734,1243.125 3121.6797,1242.8594 Q3121.0859,1242.5781 3120.4609,1242.5781 Q3119.1172,1242.5781 3118.4297,1243.6563 Q3117.7422,1244.7188 3117.7422,1246.8125 Q3117.7422,1248.9063 3118.4297,1249.9844 Q3119.1172,1251.0469 3120.4609,1251.0469 Q3121.0859,1251.0469 3121.6797,1250.7813 Q3122.2734,1250.5 3122.8984,1249.9219 L3122.8984,1252.6406 Z " fill="#000000"></path><text fill="#000000" font-family="sans-serif" font-size="14" lengthAdjust="spacing" textLength="294.0889" x="3140.4297" y="1251.8467">4a4b35e6-05c0-4abe-8594-aa7b42d8ff58</text><line style="stroke:#181818;stroke-width:0.5;" x1="2976.5" x2="3565.9482" y1="1263" y2="1263"></line><polygon fill="none" points="2986.5,1272.6484,2982.5,1278.6484,2990.5,1278.6484" style="stroke:#1963A0;stroke-width:1;"></polygon><text fill="#000000" font-family="sans-serif" font-size="14" lengthAdjust="spacing" textLength="565.4482" x="2995.5" y="1279.9951">&#34;usd::usdgeom::mesh&#34; : &#34;{&#39;faceVertexIndices&#39;: [3, 0, 1 [...] , 0.59999996, 1.2]]}&#34;</text><polygon fill="none" points="2986.5,1288.9453,2982.5,1294.9453,2990.5,1294.9453" style="stroke:#1963A0;stroke-width:1;"></polygon><text fill="#000000" font-family="sans-serif" font-size="14" lengthAdjust="spacing" textLength="363.3164" x="2995.5" y="1296.292">&#34;usd::usdgeom::visibility&#34; : &#34;{&#39;visibility&#39;: &#39;invisible&#39;}&#34;</text><line style="stroke:#181818;stroke-width:0.5;" x1="2976.5" x2="3565.9482" y1="1303.5938" y2="1303.5938"></line></g><g class="entity" id="entity_3b1b9346-ead9-4301-ac87-3038e62ebfda"><rect fill="#F1F1F1" height="64.2969" rx="2.5" ry="2.5" style="stroke:#181818;stroke-width:0.5;" width="574.6318" x="3601.5" y="1239.5"></rect><ellipse cx="3735.5254" cy="1255.5" fill="#ADD1B2" rx="11" ry="11" style="stroke:#181818;stroke-width:1;"></ellipse><path d="M3738.4941,1261.1406 Q3737.916,1261.4375 3737.2754,1261.5781 Q3736.6348,1261.7344 3735.9316,1261.7344 Q3733.4316,1261.7344 3732.1035,1260.0938 Q3730.791,1258.4375 3730.791,1255.3125 Q3730.791,1252.1875 3732.1035,1250.5313 Q3733.4316,1248.875 3735.9316,1248.875 Q3736.6348,1248.875 3737.2754,1249.0313 Q3737.9316,1249.1875 3738.4941,1249.4844 L3738.4941,1252.2031 Q3737.8691,1251.625 3737.2754,1251.3594 Q3736.6816,1251.0781 3736.0566,1251.0781 Q3734.7129,1251.0781 3734.0254,1252.1563 Q3733.3379,1253.2188 3733.3379,1255.3125 Q3733.3379,1257.4063 3734.0254,1258.4844 Q3734.7129,1259.5469 3736.0566,1259.5469 Q3736.6816,1259.5469 3737.2754,1259.2813 Q3737.8691,1259 3738.4941,1258.4219 L3738.4941,1261.1406 Z " fill="#000000"></path><text fill="#000000" font-family="sans-serif" font-size="14" lengthAdjust="spacing" textLength="298.0811" x="3756.0254" y="1260.3467">3b1b9346-ead9-4301-ac87-3038e62ebfda</text><line style="stroke:#181818;stroke-width:0.5;" x1="3602.5" x2="4175.1318" y1="1271.5" y2="1271.5"></line><polygon fill="none" points="3612.5,1281.1484,3608.5,1287.1484,3616.5,1287.1484" style="stroke:#1963A0;stroke-width:1;"></polygon><text fill="#000000" font-family="sans-serif" font-size="14" lengthAdjust="spacing" textLength="548.6318" x="3621.5" y="1288.4951">&#34;usd::usdgeom::mesh&#34; : &#34;{&#39;faceVertexIndices&#39;: [0, 1, 2 [...] , [0.8, 0.03, 1.1]]}&#34;</text><line style="stroke:#181818;stroke-width:0.5;" x1="3602.5" x2="4175.1318" y1="1295.7969" y2="1295.7969"></line></g><g class="entity" id="entity_a0061a96-fd61-47ec-8d38-39cf14f3c3a8"><rect fill="#F1F1F1" height="64.2969" rx="2.5" ry="2.5" style="stroke:#181818;stroke-width:0.5;" width="566.7295" x="2080.5" y="901.5"></rect><ellipse cx="2215.438" cy="917.5" fill="#ADD1B2" rx="11" ry="11" style="stroke:#181818;stroke-width:1;"></ellipse><path d="M2218.4067,923.1406 Q2217.8286,923.4375 2217.188,923.5781 Q2216.5474,923.7344 2215.8442,923.7344 Q2213.3442,923.7344 2212.0161,922.0938 Q2210.7036,920.4375 2210.7036,917.3125 Q2210.7036,914.1875 2212.0161,912.5313 Q2213.3442,910.875 2215.8442,910.875 Q2216.5474,910.875 2217.188,911.0313 Q2217.8442,911.1875 2218.4067,911.4844 L2218.4067,914.2031 Q2217.7817,913.625 2217.188,913.3594 Q2216.5942,913.0781 2215.9692,913.0781 Q2214.6255,913.0781 2213.938,914.1563 Q2213.2505,915.2188 2213.2505,917.3125 Q2213.2505,919.4063 2213.938,920.4844 Q2214.6255,921.5469 2215.9692,921.5469 Q2216.5942,921.5469 2217.188,921.2813 Q2217.7817,921 2218.4067,920.4219 L2218.4067,923.1406 Z " fill="#000000"></path><text fill="#000000" font-family="sans-serif" font-size="14" lengthAdjust="spacing" textLength="288.3535" x="2235.938" y="922.3467">a0061a96-fd61-47ec-8d38-39cf14f3c3a8</text><line style="stroke:#181818;stroke-width:0.5;" x1="2081.5" x2="2646.2295" y1="933.5" y2="933.5"></line><polygon fill="none" points="2091.5,943.1484,2087.5,949.1484,2095.5,949.1484" style="stroke:#1963A0;stroke-width:1;"></polygon><text fill="#000000" font-family="sans-serif" font-size="14" lengthAdjust="spacing" textLength="540.7295" x="2100.5" y="950.4951">&#34;usd::usdgeom::mesh&#34; : &#34;{&#39;faceVertexIndices&#39;: [1, 2, 3 [...] , 5, 3], [0, 0, 3]]}&#34;</text><line style="stroke:#181818;stroke-width:0.5;" x1="2081.5" x2="2646.2295" y1="957.7969" y2="957.7969"></line></g><g class="entity" id="entity_668e304b-38a2-4f8f-b3de-2a8a5a13384d"><rect fill="#F1F1F1" height="64.2969" rx="2.5" ry="2.5" style="stroke:#181818;stroke-width:0.5;" width="591.4482" x="4476.5" y="901.5"></rect><ellipse cx="4620.3247" cy="917.5" fill="#ADD1B2" rx="11" ry="11" style="stroke:#181818;stroke-width:1;"></ellipse><path d="M4623.2935,923.1406 Q4622.7153,923.4375 4622.0747,923.5781 Q4621.4341,923.7344 4620.731,923.7344 Q4618.231,923.7344 4616.9028,922.0938 Q4615.5903,920.4375 4615.5903,917.3125 Q4615.5903,914.1875 4616.9028,912.5313 Q4618.231,910.875 4620.731,910.875 Q4621.4341,910.875 4622.0747,911.0313 Q4622.731,911.1875 4623.2935,911.4844 L4623.2935,914.2031 Q4622.6685,913.625 4622.0747,913.3594 Q4621.481,913.0781 4620.856,913.0781 Q4619.5122,913.0781 4618.8247,914.1563 Q4618.1372,915.2188 4618.1372,917.3125 Q4618.1372,919.4063 4618.8247,920.4844 Q4619.5122,921.5469 4620.856,921.5469 Q4621.481,921.5469 4622.0747,921.2813 Q4622.6685,921 4623.2935,920.4219 L4623.2935,923.1406 Z " fill="#000000"></path><text fill="#000000" font-family="sans-serif" font-size="14" lengthAdjust="spacing" textLength="295.2988" x="4640.8247" y="922.3467">668e304b-38a2-4f8f-b3de-2a8a5a13384d</text><line style="stroke:#181818;stroke-width:0.5;" x1="4477.5" x2="5066.9482" y1="933.5" y2="933.5"></line><polygon fill="none" points="4487.5,943.1484,4483.5,949.1484,4491.5,949.1484" style="stroke:#1963A0;stroke-width:1;"></polygon><text fill="#000000" font-family="sans-serif" font-size="14" lengthAdjust="spacing" textLength="565.4482" x="4496.5" y="950.4951">&#34;usd::usdgeom::mesh&#34; : &#34;{&#39;faceVertexIndices&#39;: [3, 0, 1 [...] 5.8466067, 0.1, 1]]}&#34;</text><line style="stroke:#181818;stroke-width:0.5;" x1="4477.5" x2="5066.9482" y1="957.7969" y2="957.7969"></line></g><g class="entity" id="entity_c3055cc8-a5b6-4a84-860e-0d6cc978dfe8"><rect fill="#F1F1F1" height="64.2969" rx="2.5" ry="2.5" style="stroke:#181818;stroke-width:0.5;" width="473.8154" x="5103" y="901.5"></rect><ellipse cx="5188.7056" cy="917.5" fill="#ADD1B2" rx="11" ry="11" style="stroke:#181818;stroke-width:1;"></ellipse><path d="M5191.6743,923.1406 Q5191.0962,923.4375 5190.4556,923.5781 Q5189.8149,923.7344 5189.1118,923.7344 Q5186.6118,923.7344 5185.2837,922.0938 Q5183.9712,920.4375 5183.9712,917.3125 Q5183.9712,914.1875 5185.2837,912.5313 Q5186.6118,910.875 5189.1118,910.875 Q5189.8149,910.875 5190.4556,911.0313 Q5191.1118,911.1875 5191.6743,911.4844 L5191.6743,914.2031 Q5191.0493,913.625 5190.4556,913.3594 Q5189.8618,913.0781 5189.2368,913.0781 Q5187.8931,913.0781 5187.2056,914.1563 Q5186.5181,915.2188 5186.5181,917.3125 Q5186.5181,919.4063 5187.2056,920.4844 Q5187.8931,921.5469 5189.2368,921.5469 Q5189.8618,921.5469 5190.4556,921.2813 Q5191.0493,921 5191.6743,920.4219 L5191.6743,923.1406 Z " fill="#000000"></path><text fill="#000000" font-family="sans-serif" font-size="14" lengthAdjust="spacing" textLength="293.9043" x="5209.2056" y="922.3467">c3055cc8-a5b6-4a84-860e-0d6cc978dfe8</text><line style="stroke:#181818;stroke-width:0.5;" x1="5104" x2="5575.8154" y1="933.5" y2="933.5"></line><polygon fill="none" points="5114,943.1484,5110,949.1484,5118,949.1484" style="stroke:#1963A0;stroke-width:1;"></polygon><text fill="#000000" font-family="sans-serif" font-size="14" lengthAdjust="spacing" textLength="447.8154" x="5123" y="950.4951">&#34;usd::usdgeom::basiscurves&#34; : &#34;{&#39;points&#39;: [[0, 0, 0], [10, 0, 0]]}&#34;</text><line style="stroke:#181818;stroke-width:0.5;" x1="5104" x2="5575.8154" y1="957.7969" y2="957.7969"></line></g><g class="entity" id="entity_97c55241-7a56-48d7-bc6e-be2fd24f86ac"><rect fill="#F1F1F1" height="64.2969" rx="2.5" ry="2.5" style="stroke:#181818;stroke-width:0.5;" width="464.9082" x="5612.5" y="901.5"></rect><ellipse cx="5694.5415" cy="917.5" fill="#ADD1B2" rx="11" ry="11" style="stroke:#181818;stroke-width:1;"></ellipse><path d="M5697.5103,923.1406 Q5696.9321,923.4375 5696.2915,923.5781 Q5695.6509,923.7344 5694.9478,923.7344 Q5692.4478,923.7344 5691.1196,922.0938 Q5689.8071,920.4375 5689.8071,917.3125 Q5689.8071,914.1875 5691.1196,912.5313 Q5692.4478,910.875 5694.9478,910.875 Q5695.6509,910.875 5696.2915,911.0313 Q5696.9478,911.1875 5697.5103,911.4844 L5697.5103,914.2031 Q5696.8853,913.625 5696.2915,913.3594 Q5695.6978,913.0781 5695.0728,913.0781 Q5693.729,913.0781 5693.0415,914.1563 Q5692.354,915.2188 5692.354,917.3125 Q5692.354,919.4063 5693.0415,920.4844 Q5693.729,921.5469 5695.0728,921.5469 Q5695.6978,921.5469 5696.2915,921.2813 Q5696.8853,921 5697.5103,920.4219 L5697.5103,923.1406 Z " fill="#000000"></path><text fill="#000000" font-family="sans-serif" font-size="14" lengthAdjust="spacing" textLength="292.3252" x="5715.0415" y="922.3467">97c55241-7a56-48d7-bc6e-be2fd24f86ac</text><line style="stroke:#181818;stroke-width:0.5;" x1="5613.5" x2="6076.4082" y1="933.5" y2="933.5"></line><polygon fill="none" points="5623.5,943.1484,5619.5,949.1484,5627.5,949.1484" style="stroke:#1963A0;stroke-width:1;"></polygon><text fill="#000000" font-family="sans-serif" font-size="14" lengthAdjust="spacing" textLength="438.9082" x="5632.5" y="950.4951">&#34;usd::usdgeom::basiscurves&#34; : &#34;{&#39;points&#39;: [[0, 0, 0], [0, 0, 3]]}&#34;</text><line style="stroke:#181818;stroke-width:0.5;" x1="5613.5" x2="6076.4082" y1="957.7969" y2="957.7969"></line></g><g class="entity" id="entity_b6012d70-097a-4794-8d1f-220fa65a591a"><rect fill="#F1F1F1" height="64.2969" rx="2.5" ry="2.5" style="stroke:#181818;stroke-width:0.5;" width="571.1865" x="6112.5" y="901.5"></rect><ellipse cx="6245.8896" cy="917.5" fill="#ADD1B2" rx="11" ry="11" style="stroke:#181818;stroke-width:1;"></ellipse><path d="M6248.8584,923.1406 Q6248.2803,923.4375 6247.6396,923.5781 Q6246.999,923.7344 6246.2959,923.7344 Q6243.7959,923.7344 6242.4678,922.0938 Q6241.1553,920.4375 6241.1553,917.3125 Q6241.1553,914.1875 6242.4678,912.5313 Q6243.7959,910.875 6246.2959,910.875 Q6246.999,910.875 6247.6396,911.0313 Q6248.2959,911.1875 6248.8584,911.4844 L6248.8584,914.2031 Q6248.2334,913.625 6247.6396,913.3594 Q6247.0459,913.0781 6246.4209,913.0781 Q6245.0771,913.0781 6244.3896,914.1563 Q6243.7021,915.2188 6243.7021,917.3125 Q6243.7021,919.4063 6244.3896,920.4844 Q6245.0771,921.5469 6246.4209,921.5469 Q6247.0459,921.5469 6247.6396,921.2813 Q6248.2334,921 6248.8584,920.4219 L6248.8584,923.1406 Z " fill="#000000"></path><text fill="#000000" font-family="sans-serif" font-size="14" lengthAdjust="spacing" textLength="295.9072" x="6266.3896" y="922.3467">b6012d70-097a-4794-8d1f-220fa65a591a</text><line style="stroke:#181818;stroke-width:0.5;" x1="6113.5" x2="6682.6865" y1="933.5" y2="933.5"></line><polygon fill="none" points="6123.5,943.1484,6119.5,949.1484,6127.5,949.1484" style="stroke:#1963A0;stroke-width:1;"></polygon><text fill="#000000" font-family="sans-serif" font-size="14" lengthAdjust="spacing" textLength="545.1865" x="6132.5" y="950.4951">&#34;usd::usdgeom::mesh&#34; : &#34;{&#39;faceVertexIndices&#39;: [0, 1, 2 [...] .1, 0], [10, 0, 0]]}&#34;</text><line style="stroke:#181818;stroke-width:0.5;" x1="6113.5" x2="6682.6865" y1="957.7969" y2="957.7969"></line></g><g class="entity" id="entity_02333064-a80b-4824-9751-36f88d0d175d"><rect fill="#F1F1F1" height="64.2969" rx="2.5" ry="2.5" style="stroke:#181818;stroke-width:0.5;" width="596.8145" x="36.5" y="1074.5"></rect><ellipse cx="180.2324" cy="1090.5" fill="#ADD1B2" rx="11" ry="11" style="stroke:#181818;stroke-width:1;"></ellipse><path d="M183.2012,1096.1406 Q182.623,1096.4375 181.9824,1096.5781 Q181.3418,1096.7344 180.6387,1096.7344 Q178.1387,1096.7344 176.8105,1095.0938 Q175.498,1093.4375 175.498,1090.3125 Q175.498,1087.1875 176.8105,1085.5313 Q178.1387,1083.875 180.6387,1083.875 Q181.3418,1083.875 181.9824,1084.0313 Q182.6387,1084.1875 183.2012,1084.4844 L183.2012,1087.2031 Q182.5762,1086.625 181.9824,1086.3594 Q181.3887,1086.0781 180.7637,1086.0781 Q179.4199,1086.0781 178.7324,1087.1563 Q178.0449,1088.2188 178.0449,1090.3125 Q178.0449,1092.4063 178.7324,1093.4844 Q179.4199,1094.5469 180.7637,1094.5469 Q181.3887,1094.5469 181.9824,1094.2813 Q182.5762,1094 183.2012,1093.4219 L183.2012,1096.1406 Z " fill="#000000"></path><text fill="#000000" font-family="sans-serif" font-size="14" lengthAdjust="spacing" textLength="300.8496" x="200.7324" y="1095.3467">02333064-a80b-4824-9751-36f88d0d175d</text><line style="stroke:#181818;stroke-width:0.5;" x1="37.5" x2="632.3145" y1="1106.5" y2="1106.5"></line><polygon fill="none" points="47.5,1116.1484,43.5,1122.1484,51.5,1122.1484" style="stroke:#1963A0;stroke-width:1;"></polygon><text fill="#000000" font-family="sans-serif" font-size="14" lengthAdjust="spacing" textLength="570.8145" x="56.5" y="1123.4951">&#34;usd::usdgeom::mesh&#34; : &#34;{&#39;faceVertexIndices&#39;: [3, 0, 1 [...] -2.3841858e-08, 3]]}&#34;</text><line style="stroke:#181818;stroke-width:0.5;" x1="37.5" x2="632.3145" y1="1130.7969" y2="1130.7969"></line></g><g class="entity" id="entity_c3b8360d-98b5-4fa1-9350-a8ab8106a80f"><rect fill="#F1F1F1" height="64.2969" rx="2.5" ry="2.5" style="stroke:#181818;stroke-width:0.5;" width="596.2129" x="728" y="1074.5"></rect><ellipse cx="874.5181" cy="1090.5" fill="#ADD1B2" rx="11" ry="11" style="stroke:#181818;stroke-width:1;"></ellipse><path d="M877.4868,1096.1406 Q876.9087,1096.4375 876.2681,1096.5781 Q875.6274,1096.7344 874.9243,1096.7344 Q872.4243,1096.7344 871.0962,1095.0938 Q869.7837,1093.4375 869.7837,1090.3125 Q869.7837,1087.1875 871.0962,1085.5313 Q872.4243,1083.875 874.9243,1083.875 Q875.6274,1083.875 876.2681,1084.0313 Q876.9243,1084.1875 877.4868,1084.4844 L877.4868,1087.2031 Q876.8618,1086.625 876.2681,1086.3594 Q875.6743,1086.0781 875.0493,1086.0781 Q873.7056,1086.0781 873.0181,1087.1563 Q872.3306,1088.2188 872.3306,1090.3125 Q872.3306,1092.4063 873.0181,1093.4844 Q873.7056,1094.5469 875.0493,1094.5469 Q875.6743,1094.5469 876.2681,1094.2813 Q876.8618,1094 877.4868,1093.4219 L877.4868,1096.1406 Z " fill="#000000"></path><text fill="#000000" font-family="sans-serif" font-size="14" lengthAdjust="spacing" textLength="294.6768" x="895.0181" y="1095.3467">c3b8360d-98b5-4fa1-9350-a8ab8106a80f</text><line style="stroke:#181818;stroke-width:0.5;" x1="729" x2="1323.2129" y1="1106.5" y2="1106.5"></line><polygon fill="none" points="739,1116.1484,735,1122.1484,743,1122.1484" style="stroke:#1963A0;stroke-width:1;"></polygon><text fill="#000000" font-family="sans-serif" font-size="14" lengthAdjust="spacing" textLength="570.2129" x="748" y="1123.4951">&#34;usd::usdgeom::mesh&#34; : &#34;{&#39;faceVertexIndices&#39;: [0, 1, 2 [...] .3841858e-08, 2.2]]}&#34;</text><line style="stroke:#181818;stroke-width:0.5;" x1="729" x2="1323.2129" y1="1130.7969" y2="1130.7969"></line></g><g class="entity" id="entity_b5bdd146-5d6a-49f8-9e09-c1e7a48fb676"><rect fill="#F1F1F1" height="64.2969" rx="2.5" ry="2.5" style="stroke:#181818;stroke-width:0.5;" width="596.8145" x="1418.5" y="1074.5"></rect><ellipse cx="1565.3052" cy="1090.5" fill="#ADD1B2" rx="11" ry="11" style="stroke:#181818;stroke-width:1;"></ellipse><path d="M1568.2739,1096.1406 Q1567.6958,1096.4375 1567.0552,1096.5781 Q1566.4146,1096.7344 1565.7114,1096.7344 Q1563.2114,1096.7344 1561.8833,1095.0938 Q1560.5708,1093.4375 1560.5708,1090.3125 Q1560.5708,1087.1875 1561.8833,1085.5313 Q1563.2114,1083.875 1565.7114,1083.875 Q1566.4146,1083.875 1567.0552,1084.0313 Q1567.7114,1084.1875 1568.2739,1084.4844 L1568.2739,1087.2031 Q1567.6489,1086.625 1567.0552,1086.3594 Q1566.4614,1086.0781 1565.8364,1086.0781 Q1564.4927,1086.0781 1563.8052,1087.1563 Q1563.1177,1088.2188 1563.1177,1090.3125 Q1563.1177,1092.4063 1563.8052,1093.4844 Q1564.4927,1094.5469 1565.8364,1094.5469 Q1566.4614,1094.5469 1567.0552,1094.2813 Q1567.6489,1094 1568.2739,1093.4219 L1568.2739,1096.1406 Z " fill="#000000"></path><text fill="#000000" font-family="sans-serif" font-size="14" lengthAdjust="spacing" textLength="294.7041" x="1585.8052" y="1095.3467">b5bdd146-5d6a-49f8-9e09-c1e7a48fb676</text><line style="stroke:#181818;stroke-width:0.5;" x1="1419.5" x2="2014.3145" y1="1106.5" y2="1106.5"></line><polygon fill="none" points="1429.5,1116.1484,1425.5,1122.1484,1433.5,1122.1484" style="stroke:#1963A0;stroke-width:1;"></polygon><text fill="#000000" font-family="sans-serif" font-size="14" lengthAdjust="spacing" textLength="570.8145" x="1438.5" y="1123.4951">&#34;usd::usdgeom::mesh&#34; : &#34;{&#39;faceVertexIndices&#39;: [2, 0, 1 [...] -2.3841858e-08, 1]]}&#34;</text><line style="stroke:#181818;stroke-width:0.5;" x1="1419.5" x2="2014.3145" y1="1130.7969" y2="1130.7969"></line></g><g class="entity" id="entity_f83b2e90-81df-4cae-ad63-52a51009e561"><rect fill="#F1F1F1" height="80.5938" rx="2.5" ry="2.5" style="stroke:#181818;stroke-width:0.5;" width="618.8125" x="2682.5" y="893"></rect><ellipse cx="2840.5845" cy="909" fill="#ADD1B2" rx="11" ry="11" style="stroke:#181818;stroke-width:1;"></ellipse><path d="M2843.5532,914.6406 Q2842.9751,914.9375 2842.3345,915.0781 Q2841.6938,915.2344 2840.9907,915.2344 Q2838.4907,915.2344 2837.1626,913.5938 Q2835.8501,911.9375 2835.8501,908.8125 Q2835.8501,905.6875 2837.1626,904.0313 Q2838.4907,902.375 2840.9907,902.375 Q2841.6938,902.375 2842.3345,902.5313 Q2842.9907,902.6875 2843.5532,902.9844 L2843.5532,905.7031 Q2842.9282,905.125 2842.3345,904.8594 Q2841.7407,904.5781 2841.1157,904.5781 Q2839.772,904.5781 2839.0845,905.6563 Q2838.397,906.7188 2838.397,908.8125 Q2838.397,910.9063 2839.0845,911.9844 Q2839.772,913.0469 2841.1157,913.0469 Q2841.7407,913.0469 2842.3345,912.7813 Q2842.9282,912.5 2843.5532,911.9219 L2843.5532,914.6406 Z " fill="#000000"></path><text fill="#000000" font-family="sans-serif" font-size="14" lengthAdjust="spacing" textLength="294.1436" x="2861.0845" y="913.8467">f83b2e90-81df-4cae-ad63-52a51009e561</text><line style="stroke:#181818;stroke-width:0.5;" x1="2683.5" x2="3300.3125" y1="925" y2="925"></line><ellipse cx="2693.5" cy="938.6484" fill="none" rx="3" ry="3" style="stroke:#038048;stroke-width:1;"></ellipse><text fill="#000000" font-family="sans-serif" font-size="14" lengthAdjust="spacing" textLength="208.1201" x="2702.5" y="941.9951">&#34;bsi::name&#34; : &#34;SpaceMaterial&#34;</text><polygon fill="none" points="2693.5,950.9453,2689.5,956.9453,2697.5,956.9453" style="stroke:#1963A0;stroke-width:1;"></polygon><text fill="#000000" font-family="sans-serif" font-size="14" lengthAdjust="spacing" textLength="592.8125" x="2702.5" y="958.292">&#34;usd::usdshade::material&#34; : &#34;{&#39;outputs::surface.connect&#39;: { [...] :outputs::surface&#39;}}&#34;</text><line style="stroke:#181818;stroke-width:0.5;" x1="2683.5" x2="3300.3125" y1="965.5938" y2="965.5938"></line></g><g class="entity" id="entity_359c715f-5961-4c20-be08-9bb25ea75c24"><rect fill="#F1F1F1" height="80.5938" rx="2.5" ry="2.5" style="stroke:#181818;stroke-width:0.5;" width="618.8125" x="6718.5" y="893"></rect><ellipse cx="6875.3301" cy="909" fill="#ADD1B2" rx="11" ry="11" style="stroke:#181818;stroke-width:1;"></ellipse><path d="M6878.2988,914.6406 Q6877.7207,914.9375 6877.0801,915.0781 Q6876.4395,915.2344 6875.7363,915.2344 Q6873.2363,915.2344 6871.9082,913.5938 Q6870.5957,911.9375 6870.5957,908.8125 Q6870.5957,905.6875 6871.9082,904.0313 Q6873.2363,902.375 6875.7363,902.375 Q6876.4395,902.375 6877.0801,902.5313 Q6877.7363,902.6875 6878.2988,902.9844 L6878.2988,905.7031 Q6877.6738,905.125 6877.0801,904.8594 Q6876.4863,904.5781 6875.8613,904.5781 Q6874.5176,904.5781 6873.8301,905.6563 Q6873.1426,906.7188 6873.1426,908.8125 Q6873.1426,910.9063 6873.8301,911.9844 Q6874.5176,913.0469 6875.8613,913.0469 Q6876.4863,913.0469 6877.0801,912.7813 Q6877.6738,912.5 6878.2988,911.9219 L6878.2988,914.6406 Z " fill="#000000"></path><text fill="#000000" font-family="sans-serif" font-size="14" lengthAdjust="spacing" textLength="296.6523" x="6895.8301" y="913.8467">359c715f-5961-4c20-be08-9bb25ea75c24</text><line style="stroke:#181818;stroke-width:0.5;" x1="6719.5" x2="7336.3125" y1="925" y2="925"></line><ellipse cx="6729.5" cy="938.6484" fill="none" rx="3" ry="3" style="stroke:#038048;stroke-width:1;"></ellipse><text fill="#000000" font-family="sans-serif" font-size="14" lengthAdjust="spacing" textLength="195.6582" x="6738.5" y="941.9951">&#34;bsi::name&#34; : &#34;WallMaterial&#34;</text><polygon fill="none" points="6729.5,950.9453,6725.5,956.9453,6733.5,956.9453" style="stroke:#1963A0;stroke-width:1;"></polygon><text fill="#000000" font-family="sans-serif" font-size="14" lengthAdjust="spacing" textLength="592.8125" x="6738.5" y="958.292">&#34;usd::usdshade::material&#34; : &#34;{&#39;outputs::surface.connect&#39;: { [...] :outputs::surface&#39;}}&#34;</text><line style="stroke:#181818;stroke-width:0.5;" x1="6719.5" x2="7336.3125" y1="965.5938" y2="965.5938"></line></g><g class="entity" id="entity_82c0b0b0-1452-4fd9-b80d-20b9ee76a115"><rect fill="#F1F1F1" height="80.5938" rx="2.5" ry="2.5" style="stroke:#181818;stroke-width:0.5;" width="618.8125" x="4211.5" y="1231"></rect><ellipse cx="4367.1509" cy="1247" fill="#ADD1B2" rx="11" ry="11" style="stroke:#181818;stroke-width:1;"></ellipse><path d="M4370.1196,1252.6406 Q4369.5415,1252.9375 4368.9009,1253.0781 Q4368.2603,1253.2344 4367.5571,1253.2344 Q4365.0571,1253.2344 4363.729,1251.5938 Q4362.4165,1249.9375 4362.4165,1246.8125 Q4362.4165,1243.6875 4363.729,1242.0313 Q4365.0571,1240.375 4367.5571,1240.375 Q4368.2603,1240.375 4368.9009,1240.5313 Q4369.5571,1240.6875 4370.1196,1240.9844 L4370.1196,1243.7031 Q4369.4946,1243.125 4368.9009,1242.8594 Q4368.3071,1242.5781 4367.6821,1242.5781 Q4366.3384,1242.5781 4365.6509,1243.6563 Q4364.9634,1244.7188 4364.9634,1246.8125 Q4364.9634,1248.9063 4365.6509,1249.9844 Q4366.3384,1251.0469 4367.6821,1251.0469 Q4368.3071,1251.0469 4368.9009,1250.7813 Q4369.4946,1250.5 4370.1196,1249.9219 L4370.1196,1252.6406 Z " fill="#000000"></path><text fill="#000000" font-family="sans-serif" font-size="14" lengthAdjust="spacing" textLength="299.0107" x="4387.6509" y="1251.8467">82c0b0b0-1452-4fd9-b80d-20b9ee76a115</text><line style="stroke:#181818;stroke-width:0.5;" x1="4212.5" x2="4829.3125" y1="1263" y2="1263"></line><ellipse cx="4222.5" cy="1276.6484" fill="none" rx="3" ry="3" style="stroke:#038048;stroke-width:1;"></ellipse><text fill="#000000" font-family="sans-serif" font-size="14" lengthAdjust="spacing" textLength="220.9648" x="4231.5" y="1279.9951">&#34;bsi::name&#34; : &#34;WindowMaterial&#34;</text><polygon fill="none" points="4222.5,1288.9453,4218.5,1294.9453,4226.5,1294.9453" style="stroke:#1963A0;stroke-width:1;"></polygon><text fill="#000000" font-family="sans-serif" font-size="14" lengthAdjust="spacing" textLength="592.8125" x="4231.5" y="1296.292">&#34;usd::usdshade::material&#34; : &#34;{&#39;outputs::surface.connect&#39;: { [...] :outputs::surface&#39;}}&#34;</text><line style="stroke:#181818;stroke-width:0.5;" x1="4212.5" x2="4829.3125" y1="1303.5938" y2="1303.5938"></line></g><g class="entity" id="entity_b3325921-8f14-4847-9473-cfc6e333683a"><rect fill="#F1F1F1" height="48" rx="2.5" ry="2.5" style="stroke:#181818;stroke-width:0.5;" width="326.2188" x="3030" y="1082.5"></rect><ellipse cx="3045" cy="1098.5" fill="#ADD1B2" rx="11" ry="11" style="stroke:#181818;stroke-width:1;"></ellipse><path d="M3047.9688,1104.1406 Q3047.3906,1104.4375 3046.75,1104.5781 Q3046.1094,1104.7344 3045.4063,1104.7344 Q3042.9063,1104.7344 3041.5781,1103.0938 Q3040.2656,1101.4375 3040.2656,1098.3125 Q3040.2656,1095.1875 3041.5781,1093.5313 Q3042.9063,1091.875 3045.4063,1091.875 Q3046.1094,1091.875 3046.75,1092.0313 Q3047.4063,1092.1875 3047.9688,1092.4844 L3047.9688,1095.2031 Q3047.3438,1094.625 3046.75,1094.3594 Q3046.1563,1094.0781 3045.5313,1094.0781 Q3044.1875,1094.0781 3043.5,1095.1563 Q3042.8125,1096.2188 3042.8125,1098.3125 Q3042.8125,1100.4063 3043.5,1101.4844 Q3044.1875,1102.5469 3045.5313,1102.5469 Q3046.1563,1102.5469 3046.75,1102.2813 Q3047.3438,1102 3047.9688,1101.4219 L3047.9688,1104.1406 Z " fill="#000000"></path><text fill="#000000" font-family="sans-serif" font-size="14" lengthAdjust="spacing" textLength="294.2188" x="3059" y="1103.3467">b3325921-8f14-4847-9473-cfc6e333683a</text><line style="stroke:#181818;stroke-width:0.5;" x1="3031" x2="3355.2188" y1="1114.5" y2="1114.5"></line><line style="stroke:#181818;stroke-width:0.5;" x1="3031" x2="3355.2188" y1="1122.5" y2="1122.5"></line></g><g class="entity" id="entity_7a6173bc-e2f0-4e5f-aa73-cfed0ede1ceb"><rect fill="#F1F1F1" height="48" rx="2.5" ry="2.5" style="stroke:#181818;stroke-width:0.5;" width="318.8428" x="7067.5" y="1082.5"></rect><ellipse cx="7082.5" cy="1098.5" fill="#ADD1B2" rx="11" ry="11" style="stroke:#181818;stroke-width:1;"></ellipse><path d="M7085.4688,1104.1406 Q7084.8906,1104.4375 7084.25,1104.5781 Q7083.6094,1104.7344 7082.9063,1104.7344 Q7080.4063,1104.7344 7079.0781,1103.0938 Q7077.7656,1101.4375 7077.7656,1098.3125 Q7077.7656,1095.1875 7079.0781,1093.5313 Q7080.4063,1091.875 7082.9063,1091.875 Q7083.6094,1091.875 7084.25,1092.0313 Q7084.9063,1092.1875 7085.4688,1092.4844 L7085.4688,1095.2031 Q7084.8438,1094.625 7084.25,1094.3594 Q7083.6563,1094.0781 7083.0313,1094.0781 Q7081.6875,1094.0781 7081,1095.1563 Q7080.3125,1096.2188 7080.3125,1098.3125 Q7080.3125,1100.4063 7081,1101.4844 Q7081.6875,1102.5469 7083.0313,1102.5469 Q7083.6563,1102.5469 7084.25,1102.2813 Q7084.8438,1102 7085.4688,1101.4219 L7085.4688,1104.1406 Z " fill="#000000"></path><text fill="#000000" font-family="sans-serif" font-size="14" lengthAdjust="spacing" textLength="286.8428" x="7096.5" y="1103.3467">7a6173bc-e2f0-4e5f-aa73-cfed0ede1ceb</text><line style="stroke:#181818;stroke-width:0.5;" x1="7068.5" x2="7385.3428" y1="1114.5" y2="1114.5"></line><line style="stroke:#181818;stroke-width:0.5;" x1="7068.5" x2="7385.3428" y1="1122.5" y2="1122.5"></line></g><g class="entity" id="entity_317cc394-2285-4f91-a120-3bcba12e9c47"><rect fill="#F1F1F1" height="48" rx="2.5" ry="2.5" style="stroke:#181818;stroke-width:0.5;" width="327.4287" x="4558.5" y="1412.5"></rect><ellipse cx="4573.5" cy="1428.5" fill="#ADD1B2" rx="11" ry="11" style="stroke:#181818;stroke-width:1;"></ellipse><path d="M4576.4688,1434.1406 Q4575.8906,1434.4375 4575.25,1434.5781 Q4574.6094,1434.7344 4573.9063,1434.7344 Q4571.4063,1434.7344 4570.0781,1433.0938 Q4568.7656,1431.4375 4568.7656,1428.3125 Q4568.7656,1425.1875 4570.0781,1423.5313 Q4571.4063,1421.875 4573.9063,1421.875 Q4574.6094,1421.875 4575.25,1422.0313 Q4575.9063,1422.1875 4576.4688,1422.4844 L4576.4688,1425.2031 Q4575.8438,1424.625 4575.25,1424.3594 Q4574.6563,1424.0781 4574.0313,1424.0781 Q4572.6875,1424.0781 4572,1425.1563 Q4571.3125,1426.2188 4571.3125,1428.3125 Q4571.3125,1430.4063 4572,1431.4844 Q4572.6875,1432.5469 4574.0313,1432.5469 Q4574.6563,1432.5469 4575.25,1432.2813 Q4575.8438,1432 4576.4688,1431.4219 L4576.4688,1434.1406 Z " fill="#000000"></path><text fill="#000000" font-family="sans-serif" font-size="14" lengthAdjust="spacing" textLength="295.4287" x="4587.5" y="1433.3467">317cc394-2285-4f91-a120-3bcba12e9c47</text><line style="stroke:#181818;stroke-width:0.5;" x1="4559.5" x2="4884.9287" y1="1444.5" y2="1444.5"></line><line style="stroke:#181818;stroke-width:0.5;" x1="4559.5" x2="4884.9287" y1="1452.5" y2="1452.5"></line></g><g class="link" id="link_f40ec978-42e6-414a-a044-b6df23dfafef_4a4b35e6-05c0-4abe-8594-aa7b42d8ff58"><path d="M3708.59,1155.08 C3617.2,1179.19 3513.3616,1206.5799 3426.6816,1229.4399" fill="none" id="f40ec978-42e6-414a-a044-b6df23dfafef-to-4a4b35e6-05c0-4abe-8594-aa7b42d8ff58" style="stroke:#181818;stroke-width:1;"></path><polygon fill="#181818" points="3420.88,1230.97,3430.6025,1232.5427,3425.7147,1229.695,3428.5624,1224.8072,3420.88,1230.97" style="stroke:#181818;stroke-width:1;"></polygon><text fill="#000000" font-family="sans-serif" font-size="13" lengthAdjust="spacing" textLength="63.9526" x="3378.2699" y="1219.8281">child:Void</text></g><g class="link" id="link_f40ec978-42e6-414a-a044-b6df23dfafef_3b1b9346-ead9-4301-ac87-3038e62ebfda"><path d="M3889,1155.08 C3889,1182.15 3889,1209.28 3889,1233.1" fill="none" id="f40ec978-42e6-414a-a044-b6df23dfafef-to-3b1b9346-ead9-4301-ac87-3038e62ebfda" style="stroke:#181818;stroke-width:1;"></path><polygon fill="#181818" points="3889,1239.1,3893,1230.1,3889,1234.1,3885,1230.1,3889,1239.1" style="stroke:#181818;stroke-width:1;"></polygon><text fill="#000000" font-family="sans-serif" font-size="13" lengthAdjust="spacing" textLength="68.0596" x="3814.5595" y="1228.5453">child:Body</text></g><g class="link" id="link_1ea5c0ac-b13b-4ead-aa94-26d4dd36823e_08aa04b9-4ca7-45e0-9549-9154fef2828b"><path d="M3245,55.04 C3245,71.81 3245,88.95 3245,108.69" fill="none" id="1ea5c0ac-b13b-4ead-aa94-26d4dd36823e-to-08aa04b9-4ca7-45e0-9549-9154fef2828b" style="stroke:#181818;stroke-width:1;"></path><polygon fill="#181818" points="3245,114.69,3249,105.69,3245,109.69,3241,105.69,3245,114.69" style="stroke:#181818;stroke-width:1;"></polygon><text fill="#000000" font-family="sans-serif" font-size="13" lengthAdjust="spacing" textLength="105.644" x="3131.3797" y="103.8002">child:My_Project</text></g><g class="link" id="link_08aa04b9-4ca7-45e0-9549-9154fef2828b_8adf3b8f-f34a-4687-a406-5063ee095a1a"><path d="M3245,196.33 C3245,214.94 3245,231.05 3245,249.66" fill="none" id="08aa04b9-4ca7-45e0-9549-9154fef2828b-to-8adf3b8f-f34a-4687-a406-5063ee095a1a" style="stroke:#181818;stroke-width:1;"></path><polygon fill="#181818" points="3245,255.66,3249,246.66,3245,250.66,3241,246.66,3245,255.66" style="stroke:#181818;stroke-width:1;"></polygon><text fill="#000000" font-family="sans-serif" font-size="13" lengthAdjust="spacing" textLength="85.6108" x="3153.2634" y="245.0657">child:My_Site</text></g><g class="link" id="link_8adf3b8f-f34a-4687-a406-5063ee095a1a_2ddfa76e-ab37-42f2-8e37-ef5780d732e8"><path d="M3245,337.33 C3245,355.94 3245,372.05 3245,390.66" fill="none" id="8adf3b8f-f34a-4687-a406-5063ee095a1a-to-2ddfa76e-ab37-42f2-8e37-ef5780d732e8" style="stroke:#181818;stroke-width:1;"></path><polygon fill="#181818" points="3245,396.66,3249,387.66,3245,391.66,3241,387.66,3245,396.66" style="stroke:#181818;stroke-width:1;"></polygon><text fill="#000000" font-family="sans-serif" font-size="13" lengthAdjust="spacing" textLength="113.3882" x="3123.021" y="386.0657">child:My_Building</text></g><g class="link" id="link_2ddfa76e-ab37-42f2-8e37-ef5780d732e8_5a26bd1d-fa44-4aaa-9a5e-91a06eed2e52"><path d="M3245,478.33 C3245,496.94 3245,513.05 3245,531.66" fill="none" id="2ddfa76e-ab37-42f2-8e37-ef5780d732e8-to-5a26bd1d-fa44-4aaa-9a5e-91a06eed2e52" style="stroke:#181818;stroke-width:1;"></path><polygon fill="#181818" points="3245,537.66,3249,528.66,3245,532.66,3241,528.66,3245,537.66" style="stroke:#181818;stroke-width:1;"></polygon><text fill="#000000" font-family="sans-serif" font-size="13" lengthAdjust="spacing" textLength="102.9907" x="3134.9625" y="527.0657">child:My_Storey</text></g><g class="link" id="link_5a26bd1d-fa44-4aaa-9a5e-91a06eed2e52_f079bafd-8733-48d8-85df-1c1656a17c1f"><path d="M2967.64,619.01 C2771.21,646.99 2514.92,683.4939 2319.55,711.3239" fill="none" id="5a26bd1d-fa44-4aaa-9a5e-91a06eed2e52-to-f079bafd-8733-48d8-85df-1c1656a17c1f" style="stroke:#181818;stroke-width:1;"></path><polygon fill="#181818" points="2313.61,712.17,2323.0842,714.8608,2318.56,711.4649,2321.956,706.9408,2313.61,712.17" style="stroke:#181818;stroke-width:1;"></polygon><text fill="#000000" font-family="sans-serif" font-size="13" lengthAdjust="spacing" textLength="100.2676" x="2322.1789" y="707.975">child:My_Space</text></g><g class="link" id="link_5a26bd1d-fa44-4aaa-9a5e-91a06eed2e52_13168941-10d9-4c6a-8c63-505cc302312c"><path d="M3523.01,605.83 C3865.21,638.23 4436.6467,692.3442 4776.6867,724.5542" fill="none" id="5a26bd1d-fa44-4aaa-9a5e-91a06eed2e52-to-13168941-10d9-4c6a-8c63-505cc302312c" style="stroke:#181818;stroke-width:1;"></path><polygon fill="#181818" points="4782.66,725.12,4774.0773,720.2891,4777.6823,724.6485,4773.3229,728.2535,4782.66,725.12" style="stroke:#181818;stroke-width:1;"></polygon><text fill="#000000" font-family="sans-serif" font-size="13" lengthAdjust="spacing" textLength="63.2861" x="4711.563" y="721.2783">child:Wall</text></g><g class="link" id="link_f079bafd-8733-48d8-85df-1c1656a17c1f_a0061a96-fd61-47ec-8d38-39cf14f3c3a8"><path d="M2155.33,816.54 C2207.05,845.28 2260.6052,875.0458 2302.5752,898.3658" fill="none" id="f079bafd-8733-48d8-85df-1c1656a17c1f-to-a0061a96-fd61-47ec-8d38-39cf14f3c3a8" style="stroke:#181818;stroke-width:1;"></path><polygon fill="#181818" points="2307.82,901.28,2301.8956,893.4122,2303.4494,898.8515,2298.0101,900.4052,2307.82,901.28" style="stroke:#181818;stroke-width:1;"></polygon><text fill="#000000" font-family="sans-serif" font-size="13" lengthAdjust="spacing" textLength="68.0596" x="2222.0983" y="890.5109">child:Body</text></g><g class="link" id="link_f079bafd-8733-48d8-85df-1c1656a17c1f_4fd67c00-82cf-476d-b5dd-6a06b07c6141"><path d="M1768.23,776.21 C1493.21,800.38 1056.65,840.82 680,885 C638.12,889.91 599.3859,894.8662 556.5559,900.6562" fill="none" id="f079bafd-8733-48d8-85df-1c1656a17c1f-to-4fd67c00-82cf-476d-b5dd-6a06b07c6141" style="stroke:#181818;stroke-width:1;"></path><polygon fill="#181818" points="550.61,901.46,560.0647,904.2182,555.5649,900.7902,558.993,896.2904,550.61,901.46" style="stroke:#181818;stroke-width:1;"></polygon><text fill="#000000" font-family="sans-serif" font-size="13" lengthAdjust="spacing" textLength="132.3931" x="449.5302" y="890.3549">child:Boundary_Wall</text></g><g class="link" id="link_f079bafd-8733-48d8-85df-1c1656a17c1f_15226122-42a4-428d-9b9a-16566291c182"><path d="M1768.33,801.22 C1588.21,833.07 1363.3683,872.8351 1207.3083,900.4351" fill="none" id="f079bafd-8733-48d8-85df-1c1656a17c1f-to-15226122-42a4-428d-9b9a-16566291c182" style="stroke:#181818;stroke-width:1;"></path><polygon fill="#181818" points="1201.4,901.48,1210.9591,903.8515,1206.3236,900.6092,1209.5659,895.9738,1201.4,901.48" style="stroke:#181818;stroke-width:1;"></polygon><text fill="#000000" font-family="sans-serif" font-size="13" lengthAdjust="spacing" textLength="155.8921" x="1066.7064" y="890.379">child:Boundary_Window</text></g><g class="link" id="link_f079bafd-8733-48d8-85df-1c1656a17c1f_428b2888-1e0d-4f7b-b8ae-73236f626cea"><path d="M1926.31,816.54 C1874.43,845.28 1820.6986,875.0527 1778.5986,898.3727" fill="none" id="f079bafd-8733-48d8-85df-1c1656a17c1f-to-428b2888-1e0d-4f7b-b8ae-73236f626cea" style="stroke:#181818;stroke-width:1;"></path><polygon fill="#181818" points="1773.35,901.28,1783.1611,900.4181,1777.7238,898.8573,1779.2847,893.42,1773.35,901.28" style="stroke:#181818;stroke-width:1;"></polygon><text fill="#000000" font-family="sans-serif" font-size="13" lengthAdjust="spacing" textLength="187.2051" x="1579.0778" y="890.5109">child:Boundary_Window_001</text></g><g class="link" id="link_13168941-10d9-4c6a-8c63-505cc302312c_668e304b-38a2-4f8f-b3de-2a8a5a13384d"><path d="M4941.71,825.23 C4899.79,851.73 4859.5814,877.1436 4826.3514,898.1536" fill="none" id="13168941-10d9-4c6a-8c63-505cc302312c-to-668e304b-38a2-4f8f-b3de-2a8a5a13384d" style="stroke:#181818;stroke-width:1;"></path><polygon fill="#181818" points="4821.28,901.36,4831.0247,899.9313,4825.5061,898.688,4826.7494,893.1694,4821.28,901.36" style="stroke:#181818;stroke-width:1;"></polygon><text fill="#000000" font-family="sans-serif" font-size="13" lengthAdjust="spacing" textLength="68.0596" x="4756.3914" y="890.2342">child:Body</text></g><g class="link" id="link_13168941-10d9-4c6a-8c63-505cc302312c_c3055cc8-a5b6-4a84-860e-0d6cc978dfe8"><path d="M5170.29,825.23 C5212.21,851.73 5252.4186,877.1436 5285.6486,898.1536" fill="none" id="13168941-10d9-4c6a-8c63-505cc302312c-to-c3055cc8-a5b6-4a84-860e-0d6cc978dfe8" style="stroke:#181818;stroke-width:1;"></path><polygon fill="#181818" points="5290.72,901.36,5285.2506,893.1694,5286.4939,898.688,5280.9753,899.9313,5290.72,901.36" style="stroke:#181818;stroke-width:1;"></polygon><text fill="#000000" font-family="sans-serif" font-size="13" lengthAdjust="spacing" textLength="62.2134" x="5212.2033" y="890.2342">child:Axis</text></g><g class="link" id="link_13168941-10d9-4c6a-8c63-505cc302312c_97c55241-7a56-48d7-bc6e-be2fd24f86ac"><path d="M5329.19,815.15 C5457.31,844.3 5598.4895,876.419 5702.7095,900.129" fill="none" id="13168941-10d9-4c6a-8c63-505cc302312c-to-97c55241-7a56-48d7-bc6e-be2fd24f86ac" style="stroke:#181818;stroke-width:1;"></path><polygon fill="#181818" points="5708.56,901.46,5700.6716,895.5632,5703.6846,900.3508,5698.8969,903.3639,5708.56,901.46" style="stroke:#181818;stroke-width:1;"></polygon><text fill="#000000" font-family="sans-serif" font-size="13" lengthAdjust="spacing" textLength="91.1016" x="5580.0548" y="890.3549">child:Directrix</text></g><g class="link" id="link_13168941-10d9-4c6a-8c63-505cc302312c_b6012d70-097a-4794-8d1f-220fa65a591a"><path d="M5329.19,785.5 C5538.9,810.99 5835.53,848.19 6095,885 C6130.72,890.07 6162.8204,894.8635 6199.4404,900.5235" fill="none" id="13168941-10d9-4c6a-8c63-505cc302312c-to-b6012d70-097a-4794-8d1f-220fa65a591a" style="stroke:#181818;stroke-width:1;"></path><polygon fill="#181818" points="6205.37,901.44,6197.0866,896.1122,6200.4287,900.6763,6195.8646,904.0183,6205.37,901.44" style="stroke:#181818;stroke-width:1;"></polygon><text fill="#000000" font-family="sans-serif" font-size="13" lengthAdjust="spacing" textLength="69.2847" x="6089.5346" y="890.3307">child:Basis</text></g><g class="link" id="link_13168941-10d9-4c6a-8c63-505cc302312c_82966dcf-41fc-4776-97f1-71d9cb52ab7e"><path d="M4782.85,779.8 C4546.02,804.01 4194.3,842.32 3889,885 C3883.29,885.8 3883.4485,885.7629 3877.6285,886.6029" fill="none" id="13168941-10d9-4c6a-8c63-505cc302312c-to-82966dcf-41fc-4776-97f1-71d9cb52ab7e" style="stroke:#181818;stroke-width:1;"></path><polygon fill="#181818" points="3871.69,887.46,3881.1691,890.1333,3876.6387,886.7458,3880.0263,882.2154,3871.69,887.46" style="stroke:#181818;stroke-width:1;"></polygon><text fill="#000000" font-family="sans-serif" font-size="13" lengthAdjust="spacing" textLength="86.7852" x="3835.78" y="873.8783">child:Window</text></g><g class="link" id="link_13168941-10d9-4c6a-8c63-505cc302312c_8134f9ec-2e87-4b70-a538-9b6dc7ba94b1"><path d="M4782.97,808.57 C4662.69,833.05 4528.6794,860.3131 4413.3394,883.7931" fill="none" id="13168941-10d9-4c6a-8c63-505cc302312c-to-8134f9ec-2e87-4b70-a538-9b6dc7ba94b1" style="stroke:#181818;stroke-width:1;"></path><polygon fill="#181818" points="4407.46,884.99,4417.077,887.1143,4412.3595,883.9926,4415.4812,879.2751,4407.46,884.99" style="stroke:#181818;stroke-width:1;"></polygon><text fill="#000000" font-family="sans-serif" font-size="13" lengthAdjust="spacing" textLength="118.0981" x="4315.1259" y="873.8482">child:Window_001</text></g><g class="link" id="link_82966dcf-41fc-4776-97f1-71d9cb52ab7e_f40ec978-42e6-414a-a044-b6df23dfafef"><path d="M3683.39,982.13 C3722.75,1005.75 3759.881,1028.0245 3799.251,1051.6545" fill="none" id="82966dcf-41fc-4776-97f1-71d9cb52ab7e-to-f40ec978-42e6-414a-a044-b6df23dfafef" style="stroke:#181818;stroke-width:1;"></path><polygon fill="none" points="3809.54,1057.83,3806.454,1051.3126,3799.251,1051.6545,3802.337,1058.1719,3809.54,1057.83" style="stroke:#181818;stroke-width:1;"></polygon><text fill="#000000" font-family="sans-serif" font-size="13" lengthAdjust="spacing" textLength="48.915" x="3747.0259" y="1047.015">inherits</text></g><g class="link" id="link_8134f9ec-2e87-4b70-a538-9b6dc7ba94b1_f40ec978-42e6-414a-a044-b6df23dfafef"><path d="M4094.61,982.13 C4055.25,1005.75 4018.119,1028.0245 3978.749,1051.6545" fill="none" id="8134f9ec-2e87-4b70-a538-9b6dc7ba94b1-to-f40ec978-42e6-414a-a044-b6df23dfafef" style="stroke:#181818;stroke-width:1;"></path><polygon fill="none" points="3968.46,1057.83,3975.663,1058.1719,3978.749,1051.6545,3971.546,1051.3126,3968.46,1057.83" style="stroke:#181818;stroke-width:1;"></polygon><text fill="#000000" font-family="sans-serif" font-size="13" lengthAdjust="spacing" textLength="48.915" x="3928.294" y="1047.015">inherits</text></g><g class="link" id="link_4fd67c00-82cf-476d-b5dd-6a06b07c6141_02333064-a80b-4824-9751-36f88d0d175d"><path d="M335,965.86 C335,996.72 335,1037.55 335,1068.33" fill="none" id="4fd67c00-82cf-476d-b5dd-6a06b07c6141-to-02333064-a80b-4824-9751-36f88d0d175d" style="stroke:#181818;stroke-width:1;"></path><polygon fill="#181818" points="335,1074.33,339,1065.33,335,1069.33,331,1065.33,335,1074.33" style="stroke:#181818;stroke-width:1;"></polygon><text fill="#000000" font-family="sans-serif" font-size="13" lengthAdjust="spacing" textLength="68.0596" x="260.0128" y="1063.198">child:Body</text></g><g class="link" id="link_15226122-42a4-428d-9b9a-16566291c182_c3b8360d-98b5-4fa1-9350-a8ab8106a80f"><path d="M1026,965.86 C1026,996.72 1026,1037.55 1026,1068.33" fill="none" id="15226122-42a4-428d-9b9a-16566291c182-to-c3b8360d-98b5-4fa1-9350-a8ab8106a80f" style="stroke:#181818;stroke-width:1;"></path><polygon fill="#181818" points="1026,1074.33,1030,1065.33,1026,1069.33,1022,1065.33,1026,1074.33" style="stroke:#181818;stroke-width:1;"></polygon><text fill="#000000" font-family="sans-serif" font-size="13" lengthAdjust="spacing" textLength="68.0596" x="950.9717" y="1063.198">child:Body</text></g><g class="link" id="link_428b2888-1e0d-4f7b-b8ae-73236f626cea_b5bdd146-5d6a-49f8-9e09-c1e7a48fb676"><path d="M1717,965.86 C1717,996.72 1717,1037.55 1717,1068.33" fill="none" id="428b2888-1e0d-4f7b-b8ae-73236f626cea-to-b5bdd146-5d6a-49f8-9e09-c1e7a48fb676" style="stroke:#181818;stroke-width:1;"></path><polygon fill="#181818" points="1717,1074.33,1721,1065.33,1717,1069.33,1713,1065.33,1717,1074.33" style="stroke:#181818;stroke-width:1;"></polygon><text fill="#000000" font-family="sans-serif" font-size="13" lengthAdjust="spacing" textLength="68.0596" x="1642.0128" y="1063.198">child:Body</text></g><g class="link" id="link_f83b2e90-81df-4cae-ad63-52a51009e561_b3325921-8f14-4847-9473-cfc6e333683a"><path d="M3038.62,974.16 C3078.05,1007.71 3128.6197,1050.7325 3161.2197,1078.4625" fill="none" id="f83b2e90-81df-4cae-ad63-52a51009e561-to-b3325921-8f14-4847-9473-cfc6e333683a" style="stroke:#181818;stroke-width:1;"></path><polygon fill="#181818" points="3165.79,1082.35,3161.5263,1073.4719,3161.9815,1079.1104,3156.3429,1079.5656,3165.79,1082.35" style="stroke:#181818;stroke-width:1;"></polygon><text fill="#000000" font-family="sans-serif" font-size="13" lengthAdjust="spacing" textLength="81.2944" x="3067.449" y="1071.3236">child:Shader</text></g><g class="link" id="link_359c715f-5961-4c20-be08-9bb25ea75c24_7a6173bc-e2f0-4e5f-aa73-cfed0ede1ceb"><path d="M7074.15,974.16 C7113.19,1007.71 7163.2287,1050.7103 7195.5087,1078.4403" fill="none" id="359c715f-5961-4c20-be08-9bb25ea75c24-to-7a6173bc-e2f0-4e5f-aa73-cfed0ede1ceb" style="stroke:#181818;stroke-width:1;"></path><polygon fill="#181818" points="7200.06,1082.35,7195.8396,1073.4512,7196.2673,1079.0919,7190.6266,1079.5196,7200.06,1082.35" style="stroke:#181818;stroke-width:1;"></polygon><text fill="#000000" font-family="sans-serif" font-size="13" lengthAdjust="spacing" textLength="81.2944" x="7101.8364" y="1071.3236">child:Shader</text></g><g class="link" id="link_82c0b0b0-1452-4fd9-b80d-20b9ee76a115_317cc394-2285-4f91-a120-3bcba12e9c47"><path d="M4569.91,1312.17 C4608.61,1343.55 4656.6392,1382.5015 4688.7592,1408.5415" fill="none" id="82c0b0b0-1452-4fd9-b80d-20b9ee76a115-to-317cc394-2285-4f91-a120-3bcba12e9c47" style="stroke:#181818;stroke-width:1;"></path><polygon fill="#181818" points="4693.42,1412.32,4688.9479,1403.545,4689.536,1409.1712,4683.9098,1409.7594,4693.42,1412.32" style="stroke:#181818;stroke-width:1;"></polygon><text fill="#000000" font-family="sans-serif" font-size="13" lengthAdjust="spacing" textLength="81.2944" x="4594.701" y="1401.2859">child:Shader</text></g><g class="link" id="link_f079bafd-8733-48d8-85df-1c1656a17c1f_f83b2e90-81df-4cae-ad63-52a51009e561"><path d="M2313.52,804.44 C2462.67,832.59 2626.9425,863.5905 2764.8625,889.6305" fill="none" id="f079bafd-8733-48d8-85df-1c1656a17c1f-to-f83b2e90-81df-4cae-ad63-52a51009e561" style="stroke:#181818;stroke-width:1;"></path><polygon fill="none" points="2782.55,892.97,2765.9757,883.7347,2763.7493,895.5263,2782.55,892.97" style="stroke:#181818;stroke-width:1;"></polygon><text fill="#000000" font-family="sans-serif" font-size="13" lengthAdjust="spacing" textLength="51.689" x="2691.2433" y="881.8281">madeOf</text></g><g class="link" id="link_13168941-10d9-4c6a-8c63-505cc302312c_359c715f-5961-4c20-be08-9bb25ea75c24"><path d="M5329.03,769.53 C5655.81,790.55 6219.31,830.75 6701,885 C6722.23,887.39 6726.3604,887.7678 6748.4204,890.6378" fill="none" id="13168941-10d9-4c6a-8c63-505cc302312c-to-359c715f-5961-4c20-be08-9bb25ea75c24" style="stroke:#181818;stroke-width:1;"></path><polygon fill="none" points="6766.27,892.96,6749.1945,884.6879,6747.6464,896.5876,6766.27,892.96" style="stroke:#181818;stroke-width:1;"></polygon><text fill="#000000" font-family="sans-serif" font-size="13" lengthAdjust="spacing" textLength="51.689" x="6665.9777" y="881.8163">madeOf</text></g><g class="link" id="link_f40ec978-42e6-414a-a044-b6df23dfafef_82c0b0b0-1452-4fd9-b80d-20b9ee76a115"><path d="M4073.5,1155.08 C4166.95,1179.19 4261.6503,1203.6149 4350.2903,1226.4749" fill="none" id="f40ec978-42e6-414a-a044-b6df23dfafef-to-82c0b0b0-1452-4fd9-b80d-20b9ee76a115" style="stroke:#181818;stroke-width:1;"></path><polygon fill="none" points="4367.72,1230.97,4351.7887,1220.665,4348.7919,1232.2848,4367.72,1230.97" style="stroke:#181818;stroke-width:1;"></polygon><text fill="#000000" font-family="sans-serif" font-size="13" lengthAdjust="spacing" textLength="51.689" x="4286.0675" y="1219.8281">madeOf</text></g><g class="link" id="link_f83b2e90-81df-4cae-ad63-52a51009e561_f83b2e90-81df-4cae-ad63-52a51009e561/Shader"><path d="M2936.2404,981.936 C2912.5804,1002.066 2901.5505,1011.4549 2874.8405,1034.1749" fill="none" id="f83b2e90-81df-4cae-ad63-52a51009e561-f83b2e90-81df-4cae-ad63-52a51009e561/Shader" style="stroke:#181818;stroke-width:1;stroke-dasharray:7.0,7.0;"></path><polygon fill="none" points="2945.38,974.16,2938.2182,975.0015,2936.2404,981.936,2943.4022,981.0946,2945.38,974.16" style="stroke:#181818;stroke-width:1;"></polygon><polygon fill="none" points="2865.7,1041.95,2872.8619,1041.1093,2874.8405,1034.1749,2867.6786,1035.0156,2865.7,1041.95" style="stroke:#181818;stroke-width:1;"></polygon></g><g class="link" id="link_359c715f-5961-4c20-be08-9bb25ea75c24_359c715f-5961-4c20-be08-9bb25ea75c24/Shader"><path d="M6972.748,981.98 C6949.318,1002.11 6938.5014,1011.4092 6912.0614,1034.1292" fill="none" id="359c715f-5961-4c20-be08-9bb25ea75c24-359c715f-5961-4c20-be08-9bb25ea75c24/Shader" style="stroke:#181818;stroke-width:1;stroke-dasharray:7.0,7.0;"></path><polygon fill="none" points="6981.85,974.16,6974.6923,975.036,6972.748,981.98,6979.9057,981.104,6981.85,974.16" style="stroke:#181818;stroke-width:1;"></polygon><polygon fill="none" points="6902.96,1041.95,6910.1176,1041.0734,6912.0614,1034.1292,6904.9037,1035.0058,6902.96,1041.95" style="stroke:#181818;stroke-width:1;"></polygon></g><g class="link" id="link_82c0b0b0-1452-4fd9-b80d-20b9ee76a115_82c0b0b0-1452-4fd9-b80d-20b9ee76a115/Shader"><path d="M4462.7684,1319.7269 C4440.6884,1337.6269 4432.6899,1344.111 4407.9199,1364.201" fill="none" id="82c0b0b0-1452-4fd9-b80d-20b9ee76a115-82c0b0b0-1452-4fd9-b80d-20b9ee76a115/Shader" style="stroke:#181818;stroke-width:1;stroke-dasharray:7.0,7.0;"></path><polygon fill="none" points="4472.09,1312.17,4464.9102,1312.8413,4462.7684,1319.7269,4469.9482,1319.0557,4472.09,1312.17" style="stroke:#181818;stroke-width:1;"></polygon><polygon fill="none" points="4398.6,1371.76,4405.7796,1371.0871,4407.9199,1364.201,4400.7403,1364.8738,4398.6,1371.76" style="stroke:#181818;stroke-width:1;"></polygon></g></g></svg>